<?xml version="1.0" standalone="no"?>
<!DOCTYPE svg PUBLIC "-//W3C//DTD SVG 20010904//EN"
 "http://www.w3.org/TR/2001/REC-SVG-20010904/DTD/svg10.dtd">
<svg version="1.0" xmlns="http://www.w3.org/2000/svg"
 width="1824.000000pt" height="1032.000000pt" viewBox="0 0 1824.000000 1032.000000"
 preserveAspectRatio="xMidYMid meet">

<g transform="translate(0.000000,1032.000000) scale(0.100000,-0.100000)"
fill="#000000" stroke="none">
<path d="M0 10310 c0 -6 7 -13 16 -17 8 -3 13 -12 10 -19 -7 -19 9 -18 29 2
14 15 17 14 35 -6 20 -23 20 -23 38 -4 9 11 24 18 33 16 9 -1 24 4 32 13 10 9
18 11 22 5 3 -5 13 -10 22 -10 9 0 26 -9 38 -20 21 -20 55 -19 55 2 0 5 10 6
21 3 14 -5 19 -4 15 4 -4 7 -1 9 7 5 8 -3 18 0 22 5 3 6 11 9 16 5 5 -3 16 -1
24 6 9 8 15 8 20 0 5 -8 11 -8 20 0 11 9 19 7 36 -9 13 -12 29 -21 37 -21 11
0 10 -3 -2 -16 -20 -20 -21 -19 9 -20 20 -2 24 2 20 15 -4 15 1 17 37 15 24
-1 37 0 31 3 -22 8 -14 21 9 15 17 -4 20 -2 15 12 -5 13 -3 15 10 8 17 -10 53
-5 53 8 0 14 -531 11 -549 -3 -12 -9 -13 -9 -7 1 5 9 -14 12 -83 12 -56 0 -91
-4 -91 -10z m120 -30 c0 -5 -4 -10 -10 -10 -5 0 -10 5 -10 10 0 6 5 10 10 10
6 0 10 -4 10 -10z"/>
<path d="M740 10248 c0 -40 -5 -80 -10 -88 -7 -11 -10 -12 -10 -2 0 9 -7 11
-21 7 -14 -5 -19 -4 -15 4 4 7 1 9 -8 5 -22 -8 -48 20 -34 34 7 7 9 15 5 18
-4 4 -15 -3 -26 -15 -13 -15 -20 -18 -24 -9 -4 10 -7 11 -18 1 -7 -7 -22 -13
-34 -13 -12 0 -26 -5 -32 -11 -7 -7 -35 -13 -63 -14 -40 -1 -50 2 -45 13 4 10
0 12 -11 8 -11 -4 -14 -1 -9 13 3 11 -1 24 -12 32 -16 13 -17 12 -4 -3 11 -15
11 -21 1 -33 -19 -22 -32 -18 -24 8 l6 22 -19 -22 c-25 -28 -36 -29 -28 -3 5
15 -2 12 -26 -13 -21 -20 -34 -27 -37 -19 -5 16 -62 -23 -62 -44 0 -8 -4 -14
-10 -14 -15 0 -12 11 7 32 18 20 10 39 -9 20 -9 -9 -19 -6 -44 13 -21 16 -35
21 -39 15 -5 -8 -11 -8 -19 -1 -17 14 -56 2 -49 -15 3 -8 0 -14 -6 -14 -6 0
-11 -7 -11 -16 0 -8 5 -12 10 -9 6 3 10 2 10 -4 0 -5 -4 -13 -10 -16 -18 -11
-11 -64 10 -75 11 -6 25 -8 30 -5 6 3 10 -2 10 -12 0 -14 2 -15 9 -4 5 8 16
11 25 8 23 -9 94 19 117 45 20 23 20 23 10 1 -17 -34 -12 -40 10 -14 11 13 23
21 26 17 4 -4 1 -11 -7 -16 -17 -11 -16 -11 24 -16 36 -4 42 -10 26 -29 -17
-21 -1 -19 19 3 9 9 25 24 35 32 18 14 19 13 13 -4 -6 -15 -4 -17 10 -11 10 4
34 9 53 12 19 3 43 10 53 15 11 6 17 5 17 -3 0 -6 7 -8 16 -5 8 3 12 2 9 -4
-4 -6 1 -17 10 -26 15 -15 17 -15 35 1 41 37 31 3 -16 -52 -26 -32 -49 -60
-51 -62 -1 -2 -9 1 -17 8 -11 9 -15 9 -19 -1 -3 -10 -7 -10 -17 -1 -7 6 -19 9
-26 6 -9 -3 -12 0 -9 9 6 15 -31 18 -52 5 -7 -4 -15 -2 -18 3 -5 8 -14 5 -28
-7 -20 -18 -20 -17 -14 5 5 23 5 23 -21 -3 -14 -14 -32 -23 -40 -20 -8 3 -21
0 -30 -7 -13 -11 -14 -10 -8 10 7 22 6 22 -13 10 -12 -7 -21 -16 -21 -20 0 -5
-5 -8 -11 -8 -8 0 -7 5 1 15 7 9 10 19 6 22 -4 4 -11 1 -16 -7 -8 -13 -10 -13
-10 1 0 11 -9 15 -29 13 -16 -1 -34 -5 -40 -8 -7 -5 -8 -1 -4 10 5 15 1 14
-26 -5 -38 -27 -49 -50 -31 -61 11 -7 11 -11 1 -24 -9 -11 -10 -20 -1 -35 12
-23 26 -27 32 -10 2 6 15 0 28 -15 14 -14 31 -26 39 -26 11 0 9 4 -5 15 -19
14 -19 14 1 16 11 1 28 1 38 0 9 -1 17 2 17 8 0 6 6 8 14 5 10 -4 13 0 10 13
-7 24 24 53 35 35 5 -8 15 -10 27 -5 18 7 18 6 2 -11 -10 -9 -18 -23 -18 -29
0 -7 12 0 25 16 24 27 47 39 28 15 -29 -38 -22 -43 49 -43 58 0 72 3 85 20 12
15 14 16 10 3 -8 -23 15 -14 31 13 11 18 10 23 -8 39 -12 10 -17 21 -11 24 5
3 12 0 15 -6 5 -10 7 -10 12 0 3 6 10 12 16 12 6 0 5 -6 -2 -15 -20 -24 -3
-31 22 -9 17 15 16 12 -5 -17 -15 -20 -27 -42 -27 -50 1 -10 4 -9 14 4 18 23
26 22 26 -4 0 -17 3 -19 14 -10 12 10 13 8 9 -8 -3 -13 -1 -21 6 -21 7 0 9 -5
6 -10 -4 -6 -11 -8 -16 -5 -15 10 -10 -2 8 -20 13 -13 14 -18 3 -25 -7 -4 -9
-13 -5 -20 5 -9 4 -11 -4 -6 -6 4 -14 0 -17 -8 -5 -12 -10 -13 -26 -5 -15 8
-19 8 -14 0 4 -6 0 -21 -8 -33 -20 -28 -21 -48 -1 -22 20 26 19 0 -1 -32 -15
-22 -15 -24 0 -18 11 4 15 2 13 -7 -2 -8 -2 -11 0 -6 7 11 23 8 40 -9 9 -8 21
-13 27 -11 6 3 12 -8 13 -24 2 -20 -2 -27 -11 -23 -9 4 -13 -3 -13 -20 0 -31
2 -32 28 -8 11 11 17 26 14 34 -3 8 3 22 13 31 18 16 18 15 15 -23 -2 -23 1
-40 8 -40 5 0 7 5 3 11 -4 8 1 9 17 4 l24 -7 -24 21 c-19 16 -22 24 -13 33 9
9 12 9 12 0 0 -7 5 -12 11 -12 6 0 9 7 5 15 -3 8 0 14 7 12 7 -1 11 7 9 18 -2
12 0 16 5 9 10 -14 46 -27 38 -14 -3 6 3 10 13 10 13 0 21 -9 24 -25 8 -38 -1
-118 -14 -130 -8 -7 -9 -5 -5 8 8 21 3 22 -17 1 -15 -14 -16 -14 -16 1 0 9 -5
13 -10 10 -6 -3 -17 1 -26 10 -12 11 -20 13 -29 5 -9 -8 -17 -6 -29 5 -14 14
-17 14 -36 -2 -11 -10 -24 -18 -28 -19 -4 0 -15 -4 -24 -8 -9 -4 -22 -4 -29 0
-7 4 -9 3 -5 -4 3 -6 -6 -29 -21 -51 -28 -40 -43 -51 -43 -31 0 6 5 10 10 10
12 0 14 26 3 33 -5 2 -3 3 3 1 13 -3 34 15 34 29 0 5 -7 4 -16 -4 -13 -10 -17
-10 -25 2 -5 8 -9 17 -9 21 0 4 -13 6 -29 6 -15 -1 -34 3 -41 7 -10 6 -12 4
-7 -8 3 -10 2 -17 -3 -17 -6 0 -10 5 -10 10 0 6 -7 10 -15 10 -8 0 -15 -4 -15
-9 0 -5 -6 -8 -13 -7 -17 1 -91 -63 -82 -72 4 -4 18 6 31 23 22 28 25 29 40
13 16 -16 16 -17 -4 -11 -24 6 -29 -6 -10 -25 8 -8 8 -12 1 -12 -6 0 -13 -9
-16 -19 -4 -17 -2 -18 19 -11 18 7 22 6 18 -4 -7 -18 47 -16 70 3 14 12 16 12
10 -2 -4 -12 0 -15 22 -13 19 2 43 20 75 55 25 28 50 51 55 51 5 0 4 -4 -1 -8
-20 -14 -66 -82 -56 -82 5 0 13 5 16 10 3 6 11 10 16 10 6 0 7 -5 3 -12 -5 -7
-2 -9 8 -6 18 7 46 -22 40 -42 -3 -13 -2 -13 6 -1 6 8 23 15 40 16 24 1 28 -2
24 -17 -5 -22 -22 -24 -22 -3 0 8 -4 15 -10 15 -15 0 -12 -16 6 -31 14 -11 19
-10 34 9 21 25 30 28 30 9 0 -8 -11 -24 -26 -37 -21 -20 -27 -22 -34 -10 -8
12 -10 12 -15 -2 -4 -9 -13 -19 -21 -22 -12 -5 -14 -1 -9 17 l7 22 -17 -23
c-9 -12 -14 -26 -11 -30 3 -4 -10 -7 -27 -6 -18 1 -38 -3 -46 -9 -11 -10 -13
-8 -6 13 6 20 5 23 -6 13 -18 -18 -29 -16 -29 4 0 13 -3 14 -12 5 -8 -8 -15
-9 -25 -1 -9 8 -13 8 -13 0 0 -6 -7 -11 -15 -11 -8 0 -15 4 -15 8 0 15 -38 6
-60 -13 -18 -16 -20 -16 -20 -2 0 10 -4 17 -9 17 -15 0 -23 -18 -11 -25 5 -3
10 -11 10 -17 0 -6 -10 -2 -23 10 -13 12 -27 22 -31 22 -5 0 -17 10 -27 22
-18 20 -20 21 -39 3 -22 -20 -26 -14 -10 16 16 30 -3 23 -22 -8 -11 -17 -18
-22 -18 -13 0 9 7 26 16 38 8 12 10 22 5 22 -6 0 -11 4 -11 9 0 4 17 8 38 7
20 -1 43 4 49 11 7 6 18 13 25 16 10 3 10 9 1 25 -10 16 -8 23 10 42 l21 23
-23 -6 c-18 -4 -21 -3 -12 6 16 16 14 24 -9 30 -13 3 -18 1 -13 -6 4 -7 -5 -4
-19 5 -18 12 -29 14 -33 7 -5 -6 -12 -6 -23 3 -12 10 -16 10 -19 0 -3 -6 -9
-9 -14 -6 -14 8 -41 -17 -35 -33 3 -7 1 -13 -4 -13 -6 0 -10 -9 -10 -21 0 -11
5 -17 10 -14 6 3 10 1 10 -4 0 -6 -4 -11 -10 -11 -5 0 -10 -10 -9 -22 0 -13 3
-17 6 -10 3 8 14 3 34 -15 16 -16 29 -31 29 -34 0 -3 -16 -23 -35 -45 -27 -30
-35 -48 -35 -77 0 -25 4 -36 11 -31 7 4 7 -1 -1 -16 -6 -12 -9 -24 -6 -28 3
-3 6 -1 6 4 0 5 7 -4 15 -20 12 -23 13 -32 3 -45 -12 -15 -11 -15 7 -1 11 8
23 20 27 25 5 6 8 6 8 -1 0 -6 -16 -26 -35 -45 -34 -33 -35 -36 -35 -112 0
-50 4 -76 10 -72 6 3 10 -1 10 -9 0 -8 -5 -18 -10 -21 -7 -5 -8 -11 -1 -19 6
-7 6 -17 1 -26 -15 -24 -12 -467 3 -473 9 -4 9 -6 0 -6 -10 -1 -13 -286 -13
-1317 0 -1106 2 -1315 13 -1305 11 9 16 3 25 -28 14 -46 15 -71 3 -71 -4 0 -7
-11 -6 -24 2 -14 -5 -32 -16 -42 -19 -17 -19 -75 -19 -2736 l0 -2718 3600 0
3600 0 0 450 0 450 811 0 811 0 -6 708 c-3 389 -7 714 -8 723 -2 18 -28 14
-28 -3 0 -6 -6 -5 -15 2 -8 7 -15 8 -15 2 0 -5 6 -15 14 -21 11 -9 15 -9 19 1
2 7 8 10 13 5 4 -4 0 -15 -9 -24 -10 -10 -17 -12 -17 -6 0 8 -22 10 -67 8 -38
-1 -62 -1 -55 2 6 3 12 9 12 14 0 12 -37 11 -61 -1 -17 -9 -19 -7 -17 17 3 44
24 62 69 58 21 -2 43 -6 49 -10 5 -3 19 -1 31 6 17 8 20 8 14 -1 -4 -7 5 -4
20 6 23 15 28 15 36 3 6 -9 9 10 9 55 0 68 0 68 -25 64 -14 -3 -28 -1 -31 4
-3 5 -12 4 -20 -3 -9 -7 -14 -8 -13 -3 5 26 -4 24 -31 -6 -16 -18 -33 -30 -37
-27 -3 4 -1 7 5 7 7 0 12 6 12 14 0 8 6 16 13 19 6 2 9 8 5 12 -4 4 -12 4 -19
-1 -20 -12 -69 -13 -69 -1 0 8 -4 7 -12 -1 -8 -8 -19 -8 -45 3 -18 8 -33 11
-33 7 0 -4 -11 -8 -25 -8 -14 -1 -25 2 -25 6 0 4 -7 11 -16 14 -8 3 -12 2 -9
-3 3 -5 1 -12 -4 -15 -5 -4 -13 -2 -16 4 -5 8 -11 7 -22 -1 -12 -10 -16 -10
-23 1 -7 11 -11 11 -24 0 -14 -11 -16 -10 -10 5 7 17 6 17 -20 0 -25 -17 -26
-17 -19 0 5 14 3 17 -10 12 -12 -4 -14 -2 -10 9 5 14 3 14 -16 3 -23 -15 -28
-29 -9 -29 6 0 8 -3 5 -6 -4 -4 -18 1 -33 10 -26 18 -26 17 -19 -6 6 -19 5
-21 -6 -10 -7 6 -24 12 -38 12 -37 0 -53 13 -45 36 5 15 4 16 -5 4 -6 -8 -8
-24 -5 -34 5 -15 2 -18 -14 -13 -12 3 -26 -1 -33 -9 -7 -8 -19 -12 -26 -9 -18
6 -48 -21 -33 -30 5 -3 10 -1 10 4 0 6 5 11 10 11 17 0 11 -14 -11 -29 -16
-10 -23 -10 -29 -1 -5 8 -9 7 -13 -5 -5 -11 -3 -14 5 -9 8 5 9 2 5 -11 -9 -22
22 -48 39 -34 8 6 14 4 18 -7 5 -14 9 -14 23 -3 15 12 16 12 10 -3 -4 -12 -2
-15 9 -11 19 7 18 -3 -3 -25 -10 -10 -27 -30 -38 -45 -13 -18 -26 -25 -37 -21
-14 4 -16 1 -11 -13 6 -16 5 -17 -12 -3 -17 14 -18 13 -12 -8 5 -23 5 -23 -13
-7 -17 15 -21 16 -41 2 -12 -9 -27 -13 -34 -11 -7 3 -16 1 -20 -5 -3 -6 1 -11
9 -11 9 0 16 -5 16 -11 0 -6 7 -9 14 -6 10 4 13 1 9 -9 -3 -7 0 -14 7 -14 10
0 10 -3 0 -15 -16 -19 10 -48 37 -39 15 5 15 4 3 -5 -8 -5 -11 -13 -7 -17 3
-4 13 -1 22 6 18 15 19 7 4 -22 -6 -12 -7 -18 -1 -14 5 3 12 0 15 -8 3 -8 -1
-17 -9 -20 -8 -3 -14 -1 -14 5 0 6 -9 5 -22 -3 -26 -13 -37 -15 -122 -19 -32
-2 -53 -5 -47 -7 6 -2 8 -8 5 -13 -3 -6 -11 -5 -20 2 -19 16 -18 0 2 -22 11
-12 14 -25 9 -36 -7 -16 -8 -17 -12 -1 -4 15 -6 15 -23 -2 -10 -10 -21 -29
-25 -42 l-6 -23 20 23 c10 12 23 22 27 22 4 0 -1 -9 -11 -20 -10 -11 -13 -20
-7 -20 7 0 12 -3 12 -7 0 -5 -11 -8 -24 -8 -13 0 -22 3 -19 8 2 4 0 7 -6 7 -5
0 -13 -5 -16 -10 -3 -6 -11 -10 -17 -10 -6 0 -4 10 5 23 14 21 13 24 -1 34
-13 7 -22 4 -40 -14 -12 -12 -18 -23 -13 -23 5 0 16 7 25 15 27 28 27 15 -1
-22 -21 -27 -23 -35 -10 -30 20 8 21 3 6 -25 -11 -20 -12 -20 -24 -4 -10 13
-15 14 -21 5 -4 -7 -2 -15 4 -17 16 -5 15 -19 -2 -25 -10 -4 -13 -1 -10 7 6
15 -41 17 -63 3 -8 -5 -13 -4 -13 2 0 6 4 11 9 11 14 0 22 31 12 44 -5 6 -8
25 -7 42 1 23 -2 30 -11 27 -16 -6 -17 -33 -2 -33 6 0 -3 -18 -21 -40 -18 -22
-37 -37 -44 -34 -8 3 -17 1 -21 -5 -11 -18 -23 -12 -18 9 3 11 0 20 -6 20 -6
0 -11 -3 -11 -7 0 -5 -4 -14 -9 -22 -8 -12 -11 -12 -23 0 -18 19 -20 69 -3 63
7 -3 16 -1 20 5 3 6 11 11 16 11 5 0 0 -13 -12 -30 -13 -16 -19 -33 -15 -37 6
-7 19 6 30 32 3 6 9 3 15 -5 9 -13 12 -12 24 5 18 24 1 61 -20 43 -8 -7 -13
-7 -13 0 0 5 -9 12 -19 15 -14 3 -18 1 -14 -9 3 -8 2 -14 -2 -14 -13 0 -32 25
-27 38 6 19 -12 14 -28 -8 -8 -11 -18 -20 -23 -20 -5 0 -4 7 3 15 7 9 9 19 5
23 -4 4 -10 1 -12 -5 -8 -23 -25 -14 -18 10 l6 22 -20 -22 c-24 -28 -34 -29
-26 -3 7 21 -10 29 -18 8 -2 -7 -7 -10 -11 -7 -3 3 3 15 15 27 17 19 18 24 6
37 -13 12 -17 12 -32 -5 -10 -11 -13 -20 -7 -20 6 0 12 6 15 13 2 6 8 8 13 4
12 -11 -18 -28 -38 -21 -20 6 -25 -12 -5 -19 6 -2 8 -8 4 -13 -4 -5 -12 -2
-18 6 -8 13 -10 13 -19 0 -6 -9 -10 -10 -10 -3 0 6 12 25 26 42 34 41 20 40
-17 0 -16 -18 -32 -29 -36 -25 -4 3 4 17 17 31 13 14 19 25 13 25 -6 0 -26
-17 -44 -38 -18 -20 -30 -29 -26 -19 4 11 1 24 -7 33 -19 19 -32 18 -16 -1 7
-9 10 -18 6 -22 -8 -8 -37 29 -32 42 2 6 -17 10 -47 10 -47 0 -52 -3 -74 -38
-13 -20 -28 -37 -34 -37 -5 0 -8 4 -4 10 8 13 -5 60 -17 60 -5 0 -7 -8 -4 -18
8 -23 -23 -61 -43 -54 -8 3 -20 -3 -28 -14 -23 -31 -14 -5 9 29 13 18 24 34
25 36 1 2 9 -2 18 -9 22 -18 19 -3 -5 22 -11 13 -20 16 -20 9 0 -17 -29 -45
-38 -37 -3 4 0 11 8 16 22 13 3 25 -40 26 -37 0 -38 -1 -18 -14 17 -12 22 -12
29 -1 4 7 11 10 15 6 4 -3 2 -13 -4 -20 -9 -10 -8 -17 0 -25 9 -9 8 -16 -6
-30 -17 -16 -18 -16 -12 5 5 16 2 25 -14 33 -13 7 -20 7 -20 0 0 -5 -4 -10
-10 -10 -5 0 -10 8 -10 18 0 12 -12 5 -41 -26 -23 -24 -43 -41 -47 -38 -3 3 7
17 21 30 25 23 35 46 22 46 -3 0 -16 -11 -29 -25 -23 -25 -47 -36 -28 -12 12
14 -12 56 -25 43 -4 -4 -1 -11 7 -16 12 -7 11 -12 -5 -29 -21 -24 -35 -20 -15
4 7 8 8 15 3 15 -5 0 -15 -9 -23 -19 -7 -11 -18 -18 -22 -15 -5 3 -4 12 3 20
16 20 0 17 -25 -4 -19 -16 -19 -15 2 21 l22 38 -40 -33 c-22 -18 -40 -36 -40
-40 0 -5 -5 -8 -12 -8 -9 0 -9 3 0 12 7 7 12 16 12 20 0 10 -27 11 -33 1 -2
-5 -2 -2 0 6 2 8 -2 18 -9 23 -10 6 -10 10 2 19 13 9 12 10 -3 5 -10 -3 -21
-6 -23 -6 -2 0 -4 -7 -4 -16 0 -14 -2 -14 -16 -3 -14 11 -20 9 -45 -19 -16
-18 -29 -29 -29 -25 0 3 7 15 17 25 9 10 13 21 9 26 -4 4 -16 -4 -27 -17 -22
-26 -23 -24 -9 15 9 23 9 25 -4 15 -10 -9 -16 -9 -21 -1 -5 8 -11 8 -21 -1
-11 -9 -17 -9 -29 1 -12 10 -15 10 -15 -3 0 -8 5 -17 10 -19 7 -2 4 -11 -5
-23 -16 -20 -16 -20 -10 1 5 20 -9 39 -45 59 -13 8 -13 7 -1 -8 15 -19 2 -24
-16 -6 -14 14 -55 18 -103 9 -22 -4 -43 -3 -46 1 -3 5 -10 6 -17 2 -20 -12
-55 -9 -50 4 7 17 -13 17 -21 1 -5 -10 -7 -10 -12 0 -5 10 -11 10 -30 -3 -13
-8 -24 -12 -24 -7 0 4 -39 9 -87 10 -137 3 -141 4 -135 27 5 18 4 18 -11 6
-16 -12 -17 -12 -10 5 6 16 4 17 -9 7 -12 -11 -18 -9 -33 7 -10 12 -24 19 -31
16 -8 -3 -11 1 -7 10 6 17 23 19 23 2 0 -7 7 -4 16 7 11 15 17 17 23 7 4 -7
15 -10 24 -6 14 5 16 2 10 -12 -6 -17 -5 -17 11 -5 9 8 15 19 13 25 -3 7 4 12
14 12 11 0 19 -4 19 -9 0 -5 6 -4 14 2 10 9 16 9 21 1 4 -6 15 -8 25 -5 10 3
21 1 25 -5 5 -8 11 -8 21 1 17 14 18 6 3 -24 -9 -20 -8 -19 9 2 22 27 50 35
68 20 7 -6 14 -6 16 -1 1 5 14 13 27 17 16 5 21 4 17 -4 -13 -21 5 -11 35 20
l30 30 -7 -28 -6 -28 26 29 c14 16 29 26 33 22 4 -4 1 -11 -7 -16 -20 -13 6
-42 31 -35 11 4 19 1 19 -6 0 -9 3 -9 15 1 8 6 19 9 25 5 6 -4 17 -1 25 5 8 6
18 10 22 7 10 -6 9 36 -2 80 -4 18 -15 33 -26 36 -19 5 -59 -23 -59 -42 0 -16
11 -14 27 7 13 15 13 15 3 -5 -12 -25 -30 -39 -30 -23 0 6 -5 8 -10 5 -6 -4
-8 -11 -5 -16 10 -15 -2 -10 -21 8 -13 13 -19 14 -22 5 -5 -16 -29 -16 -35 1
-4 9 -6 9 -6 0 -1 -7 -7 -13 -15 -13 -8 0 -17 -6 -20 -12 -3 -7 -3 -2 1 12 5
22 4 23 -11 11 -14 -12 -16 -12 -10 4 6 14 3 16 -14 11 -17 -6 -21 -4 -16 8 8
21 -5 20 -29 -2 -11 -9 -17 -11 -13 -4 4 6 1 19 -8 27 -19 20 -32 19 -16 0 7
-9 11 -18 8 -20 -9 -10 -38 7 -38 21 0 8 -5 14 -11 14 -5 0 -7 5 -4 10 3 5 -1
10 -9 10 -8 0 -18 -5 -21 -11 -4 -6 -14 -8 -22 -4 -13 4 -14 3 -3 -9 13 -17
15 -13 -44 -66 -20 -18 -25 -20 -20 -7 4 12 1 17 -10 17 -9 0 -16 5 -16 11 0
6 -7 8 -16 5 -12 -4 -15 -2 -10 9 7 19 1 19 -18 -1 -10 -10 -16 -11 -16 -4 0
7 -7 10 -15 7 -8 -4 -17 -2 -21 4 -3 6 -12 8 -20 5 -8 -3 -14 1 -14 11 0 14
-2 14 -20 -2 -17 -15 -20 -16 -20 -3 0 9 -7 18 -14 21 -11 4 -13 1 -8 -11 6
-16 4 -16 -21 1 -32 21 -44 22 -27 2 10 -12 7 -14 -24 -10 -19 3 -38 0 -41 -5
-3 -6 -1 -10 4 -10 8 0 7 -7 -1 -19 -9 -16 -15 -17 -26 -9 -10 9 -16 8 -22 -2
-5 -8 -12 -11 -16 -8 -3 4 1 15 11 24 14 14 18 15 25 3 5 -7 12 -10 16 -7 3 4
-1 14 -10 23 -14 15 -17 14 -38 -4 -27 -26 -38 -18 -13 9 20 22 8 28 -14 8
-11 -11 -13 -10 -8 5 7 20 3 21 -23 7 -15 -8 -18 -7 -15 3 6 14 -32 16 -54 3
-10 -7 -11 -3 -6 15 5 19 -2 15 -36 -21 -23 -25 -39 -37 -36 -27 5 13 2 18
-11 16 -33 -3 -48 1 -68 20 -18 16 -23 17 -39 5 -24 -18 -30 -18 -50 2 -15 15
-18 15 -42 -7 -23 -21 -25 -22 -19 -4 6 17 4 17 -18 -4 -14 -14 -29 -21 -33
-18 -3 4 -1 7 5 7 7 0 12 5 12 11 0 6 -8 8 -18 5 -23 -7 -38 4 -46 34 -6 19
-5 21 3 10 6 -8 11 -10 11 -5 0 6 -7 20 -15 32 -12 17 -12 23 -1 32 7 6 16 8
19 4 7 -7 37 15 37 28 0 5 -7 6 -15 3 -12 -5 -14 -2 -8 12 6 17 5 18 -12 4
-17 -14 -18 -13 -13 7 3 12 1 24 -6 26 -8 3 -7 8 2 20 11 13 10 17 -5 24 -23
12 -61 9 -76 -6 -14 -14 -30 -15 -22 -1 11 18 -8 11 -33 -12 l-24 -23 7 25 7
25 -27 -25 -27 -25 7 25 c7 22 6 23 -9 8 -9 -10 -13 -24 -10 -35 6 -16 5 -15
-9 2 -10 13 -12 22 -5 26 7 4 6 9 -1 13 -6 4 -15 4 -21 1 -6 -4 -7 1 -3 11 5
13 3 16 -10 11 -12 -4 -14 -2 -10 10 5 12 1 14 -18 8 -19 -5 -21 -4 -9 5 11 9
12 13 3 17 -7 2 -13 14 -13 25 0 19 -1 19 -19 -3 -11 -14 -23 -20 -28 -15 -4
5 -2 11 5 13 6 3 12 9 12 14 0 18 -19 8 -41 -22 -18 -26 -19 -33 -8 -41 10 -7
8 -8 -7 -4 -13 4 -27 -1 -38 -13 -10 -11 -25 -17 -34 -14 -15 4 -15 3 -2 -6
13 -9 12 -14 -9 -33 l-23 -23 7 24 c6 19 4 23 -8 18 -11 -4 -13 0 -10 14 5 17
-9 25 -39 20 -4 0 -18 3 -32 9 -20 7 -24 6 -19 -5 3 -8 0 -15 -6 -15 -6 0 -11
5 -11 12 0 6 -6 3 -14 -7 -8 -11 -12 -25 -9 -32 3 -9 0 -11 -10 -7 -8 3 -18 1
-21 -5 -4 -6 -20 3 -39 22 -43 43 -86 70 -102 63 -10 -3 -12 0 -9 12 4 12 -1
10 -15 -7 -19 -21 -26 -20 -22 2 1 5 -3 6 -8 3 -5 -3 -7 -15 -4 -26 6 -22 -7
-26 -25 -8 -9 9 -12 8 -12 -5 0 -9 5 -17 12 -17 6 0 9 -3 6 -6 -11 -10 -49 16
-42 29 5 9 3 8 -7 -1 -18 -16 -29 -15 -29 4 0 8 -5 12 -11 8 -6 -3 -3 6 7 22
17 25 17 27 2 22 -13 -5 -15 -3 -11 10 15 39 72 49 105 18 18 -17 21 -17 15
-3 -7 20 -3 21 23 7 15 -8 17 -6 14 13 -2 12 -2 16 2 10 3 -7 18 -13 33 -13
28 0 47 11 71 44 14 18 14 19 -8 7 -22 -12 -24 -11 -18 11 3 12 3 17 0 11 -3
-7 -10 -13 -15 -13 -14 0 -11 27 4 34 6 3 1 3 -13 -1 -23 -5 -24 -5 -10 12 14
17 13 18 -12 11 -18 -4 -28 -2 -28 5 0 8 -4 8 -15 -1 -8 -6 -19 -9 -25 -5 -5
3 -17 0 -25 -9 -8 -8 -11 -17 -6 -20 5 -4 11 0 14 6 2 7 8 10 12 6 4 -4 0 -14
-8 -23 -11 -10 -18 -12 -22 -4 -5 7 -20 -1 -41 -22 -49 -47 -42 -27 13 39 l47
57 -42 -39 c-23 -22 -45 -36 -49 -32 -5 4 1 14 12 23 20 15 20 15 -2 8 -18 -5
-22 -3 -17 10 4 9 -2 23 -16 35 -18 16 -20 23 -11 34 9 11 9 15 -1 18 -10 4
-10 8 1 22 17 21 22 78 8 88 -7 4 -6 12 4 24 13 16 12 16 -11 4 -23 -12 -24
-12 -12 3 12 14 12 19 -1 32 -9 8 -22 12 -30 9 -8 -3 -21 2 -30 10 -9 9 -20
16 -26 16 -6 0 -11 6 -11 13 0 6 -12 0 -25 -15 -24 -28 -45 -36 -45 -18 0 5 8
14 17 19 10 6 14 11 9 11 -6 0 -21 -10 -34 -22 l-25 -23 6 23 c5 20 2 22 -16
16 -21 -6 -21 -5 3 21 24 26 24 27 4 21 -14 -4 -23 -2 -27 7 -4 10 3 13 26 11
21 -1 41 6 56 20 20 17 23 18 18 4 -7 -20 8 -25 19 -7 3 6 0 15 -7 20 -7 4
-10 11 -7 15 10 9 41 -24 33 -36 -9 -15 4 -12 21 5 14 14 11 19 -8 16 -11 -2
-10 17 2 24 5 3 19 20 31 38 l22 32 -31 -29 c-18 -16 -34 -27 -37 -24 -3 3 1
11 10 18 8 7 15 18 15 24 0 6 -7 2 -15 -8 -8 -11 -18 -17 -21 -13 -4 4 -1 13
5 21 7 8 8 16 4 19 -4 3 -16 -6 -26 -19 -10 -13 -14 -24 -8 -24 5 0 7 -9 4
-21 -6 -20 -6 -20 -29 2 -13 12 -26 20 -29 17 -4 -3 5 -15 19 -26 30 -23 33
-32 11 -32 -8 0 -15 5 -15 11 0 6 -9 8 -22 3 -20 -6 -21 -5 -10 9 8 10 9 17 3
21 -6 4 -8 13 -4 21 4 11 1 13 -11 9 -12 -5 -15 -2 -10 9 4 12 1 14 -17 10
-16 -5 -20 -3 -14 6 5 10 2 11 -14 6 -17 -5 -20 -3 -14 12 5 15 3 16 -8 6 -15
-15 -43 -17 -34 -3 3 5 -10 3 -30 -6 -31 -13 -38 -13 -57 0 -15 11 -27 12 -45
5 -32 -12 -33 -12 -27 6 4 8 2 15 -4 15 -11 0 -9 76 4 105 4 11 14 25 22 31
12 9 12 15 2 34 -10 18 -14 20 -21 9 -6 -10 -9 -8 -9 9 0 21 -14 30 -23 15 -2
-5 -3 -3 -1 4 5 21 -8 22 -29 3 -11 -11 -23 -17 -26 -14 -3 4 0 9 7 11 6 3 9
9 6 14 -3 6 -11 5 -20 -2 -11 -9 -14 -9 -14 1 0 7 -10 3 -26 -9 -14 -11 -32
-17 -41 -14 -8 3 -19 0 -23 -8 -5 -7 -13 -10 -17 -5 -4 5 -2 11 5 13 20 7 14
25 -7 18 -24 -7 -42 15 -43 54 -1 25 -3 28 -15 15 -18 -17 -24 -18 -21 -2 2 7
-3 12 -9 10 -20 -3 -15 22 7 35 17 11 18 10 13 -5 -6 -15 -5 -16 12 -2 28 21
54 53 55 65 0 6 -4 3 -10 -5 -5 -8 -12 -11 -16 -7 -4 3 -1 13 5 21 9 10 9 16
1 21 -6 4 -9 13 -6 20 6 16 -12 32 -39 34 -78 6 -108 2 -130 -19 -15 -14 -24
-17 -27 -9 -3 9 -10 9 -28 -1 -23 -12 -24 -12 -11 4 8 9 11 20 7 23 -4 4 -12
1 -17 -7 -9 -13 -10 -12 -6 1 4 11 -7 26 -29 44 -19 15 -34 31 -34 37 0 5 17
26 38 47 50 51 65 71 53 71 -5 0 -13 -5 -16 -10 -11 -17 -36 10 -30 30 5 15
-2 19 -35 22 -56 5 -72 -7 -41 -32 21 -18 22 -20 4 -20 -11 0 -23 3 -27 7 -11
11 -50 11 -64 0 -7 -6 -10 -18 -6 -30 6 -20 6 -20 -10 -4 -16 15 -16 18 -2 33
21 20 20 34 -1 36 -10 0 -23 2 -29 2 -6 1 -19 7 -28 15 -12 10 -14 17 -5 27 8
10 8 14 0 14 -6 0 -11 -4 -11 -9 0 -5 -7 -12 -16 -15 -15 -6 -15 -4 0 19 16
25 10 35 -10 15 -8 -8 -15 -6 -24 5 -7 8 -16 15 -21 15 -12 0 -39 -30 -39 -43
0 -7 4 -6 10 3 6 9 10 10 10 3 0 -18 -20 -27 -67 -29 -45 -1 -51 3 -30 25 10
11 8 11 -11 1 -13 -6 -26 -9 -30 -6 -3 3 0 6 7 6 7 0 9 5 4 13 -4 6 -8 25 -9
40 -1 21 1 26 9 18 8 -8 17 -4 34 16 13 16 20 20 17 11 -5 -14 0 -16 35 -13
40 4 40 3 30 -23 -10 -26 -10 -26 10 -8 11 10 26 16 33 14 7 -3 19 2 27 9 7 8
21 11 29 8 8 -3 19 0 24 7 6 10 10 10 17 -1 8 -12 12 -12 26 3 10 9 14 20 11
24 -4 3 -11 0 -16 -7 -7 -12 -11 -11 -25 2 -9 9 -14 21 -10 27 3 6 -1 7 -9 4
-9 -3 -16 -1 -16 5 0 6 4 11 9 11 14 0 20 38 7 49 -9 7 -111 9 -111 1 0 -7
-56 -6 -61 1 -4 6 -11 6 -20 -2 -11 -9 -14 -9 -14 1 0 7 -7 10 -15 6 -8 -3
-15 -1 -15 5 0 6 -9 8 -19 4 -13 -4 -27 1 -39 13 -17 17 -20 17 -30 3 -10 -14
-11 -14 -11 -1 -1 9 4 21 11 28 7 7 8 12 2 12 -6 0 -15 -5 -22 -12 -6 -6 -15
-8 -19 -4 -4 4 -1 11 7 16 8 5 11 13 6 17 -5 4 -11 2 -13 -5 -3 -7 -12 -19
-20 -27 -8 -9 -13 -21 -10 -28 4 -10 -6 -12 -35 -11 -30 1 -48 9 -66 29 l-25
27 24 -7 c20 -6 22 -5 12 6 -20 20 -15 31 10 25 12 -3 16 -3 10 0 -21 9 -15
26 6 19 11 -3 22 -1 26 5 3 5 11 10 16 10 6 0 7 -4 4 -10 -3 -5 -1 -10 4 -10
16 0 13 -21 -6 -43 -15 -17 -12 -16 15 3 17 13 32 27 32 31 0 4 7 9 14 12 10
4 13 1 9 -9 -3 -7 0 -14 6 -14 6 0 11 4 11 9 0 5 16 8 36 7 27 -3 34 0 30 11
-5 11 0 13 17 8 12 -3 17 -3 11 2 -6 4 -13 16 -17 25 -4 12 -2 15 9 11 7 -3
14 0 14 6 0 6 -5 11 -11 11 -8 0 -8 5 1 15 9 10 9 15 1 15 -6 0 -11 6 -11 14
0 15 -37 46 -55 46 -5 0 -3 -5 5 -10 20 -13 4 -13 -21 0 -13 8 -25 7 -39 0
-11 -6 -20 -7 -20 -3 0 15 -50 7 -71 -10 -24 -21 -33 -22 -25 -2 3 10 -3 17
-19 21 -27 7 -33 20 -13 27 7 2 10 8 6 12 -4 4 -17 -2 -29 -14 -17 -16 -26
-18 -36 -10 -7 6 -13 15 -13 20 0 15 71 74 91 75 10 1 25 7 33 13 11 9 15 9
19 -1 4 -10 8 -10 16 2 9 13 12 13 20 1 9 -15 113 -22 134 -9 7 4 12 28 12 55
0 42 2 48 20 45 29 -5 13 7 -23 17 -19 6 -34 5 -40 -1 -7 -7 -18 -4 -33 11
-13 11 -25 17 -28 13 -14 -21 -128 -33 -145 -16 -8 7 -37 10 -82 8 -153 -8
-158 -8 -151 11 4 8 2 17 -3 20 -4 3 -10 -1 -13 -7 -3 -7 -4 5 -3 27 2 40 2
40 41 40 22 0 45 3 50 7 6 3 19 0 30 -8 17 -13 18 -16 5 -25 -11 -7 -8 -8 13
-3 18 4 27 2 27 -6 0 -7 6 -5 16 5 9 8 13 23 10 32 -5 13 -4 14 8 4 8 -7 12
-20 9 -29 -6 -15 -5 -15 11 -3 9 8 15 20 12 27 -3 7 0 11 7 8 7 -2 24 6 37 18
18 17 22 18 17 5 -8 -22 7 -22 29 0 17 17 18 17 11 0 -4 -11 -2 -17 8 -17 8 0
15 -4 15 -8 0 -5 24 -8 53 -6 77 3 79 3 71 15 -4 7 0 9 14 5 22 -7 35 14 25
41 -5 12 -2 15 8 11 10 -4 14 2 14 18 0 19 -4 23 -20 17 -18 -5 -19 -4 -5 12
14 17 13 18 -3 12 -15 -6 -17 -3 -12 14 7 20 6 20 -19 4 -25 -17 -26 -17 -19
1 6 17 5 18 -12 4 -14 -12 -19 -12 -23 -2 -3 10 -7 10 -18 1 -11 -9 -14 -8
-14 4 0 9 7 20 16 25 11 6 13 11 5 16 -6 4 -11 2 -11 -3 0 -6 -5 -11 -11 -11
-5 0 -8 4 -4 9 3 5 1 12 -4 15 -5 4 -13 1 -17 -5 -3 -6 0 -15 7 -20 11 -6 9
-13 -10 -30 -19 -18 -25 -19 -32 -8 -8 12 -11 12 -19 -1 -8 -12 -12 -12 -18
-2 -5 7 -15 10 -24 7 -23 -9 -42 19 -23 35 8 7 15 17 15 22 0 5 -12 -3 -27
-17 -32 -29 -36 -30 -52 -11 -10 12 -9 14 7 9 25 -6 55 24 49 49 -4 13 -1 18
8 15 7 -3 23 4 35 15 l22 21 -7 -22 c-7 -22 -6 -22 19 -6 25 17 28 17 47 -1
16 -15 22 -16 28 -5 5 8 14 11 20 7 14 -9 91 12 92 24 6 42 3 70 -7 66 -7 -3
-10 3 -7 15 7 24 -5 25 -24 2 -13 -16 -13 -16 -7 7 6 23 6 24 -11 10 -17 -14
-18 -13 -13 7 6 21 5 21 -18 6 -23 -14 -24 -14 -18 2 6 15 4 16 -14 6 -14 -7
-23 -8 -27 -1 -4 6 -12 4 -21 -5 -18 -17 -38 -20 -28 -4 4 8 0 8 -15 0 -17
-10 -21 -9 -21 5 0 14 -2 15 -17 3 -15 -12 -16 -12 -10 4 3 9 2 17 -3 17 -6 0
-10 6 -10 14 0 8 -7 17 -16 20 -23 9 -24 8 -18 -11 4 -11 2 -14 -3 -7 -4 5
-19 18 -33 28 -15 11 -18 16 -7 12 10 -3 29 1 41 10 13 8 28 14 32 13 24 -6
44 14 38 37 -4 17 0 31 11 44 11 12 13 20 7 20 -7 0 -12 -4 -12 -10 0 -5 -8
-10 -17 -10 -14 0 -13 3 5 23 23 24 32 51 10 29 -17 -17 -31 -15 -25 3 5 11
-2 13 -29 11 -30 -2 -33 0 -28 18 6 19 6 19 -11 2 -10 -9 -24 -15 -31 -12 -8
3 -21 9 -29 12 -11 5 -14 1 -9 -12 5 -16 4 -16 -5 -4 -8 12 -13 12 -23 2 -18
-18 -33 -15 -17 5 13 15 12 15 -9 4 -18 -10 -22 -9 -22 4 0 8 4 15 9 15 5 0
12 8 15 17 6 15 5 15 -11 1 -33 -28 -46 -33 -34 -12 29 51 40 59 62 46 19 -12
20 -11 13 10 -6 21 -5 21 10 9 9 -8 15 -20 12 -27 -3 -8 0 -11 10 -7 7 3 14 9
14 15 0 5 9 7 20 3 15 -5 18 -3 14 8 -4 10 2 15 21 15 18 0 25 -5 21 -14 -3
-8 0 -11 10 -7 9 3 12 12 8 25 -4 15 -3 18 6 13 7 -4 16 -1 21 6 13 22 11 29
-8 23 -15 -5 -15 -4 -4 4 12 9 12 13 2 26 -9 11 -10 16 -2 16 6 0 11 7 11 15
0 8 -4 15 -9 15 -12 0 -9 53 4 63 7 6 6 10 -2 14 -18 7 -16 26 1 20 11 -4 13
-1 9 10 -5 12 -2 15 10 10 9 -3 19 -2 22 3 3 4 -1 11 -7 13 -7 3 4 3 24 1 20
-2 40 1 43 6 3 6 11 10 16 10 6 0 7 -4 4 -10 -3 -5 1 -10 9 -10 8 0 18 5 21
10 4 6 11 8 16 4 5 -3 17 0 25 7 13 10 17 10 25 -2 5 -8 9 -9 9 -3 0 6 -6 17
-14 23 -11 9 -15 9 -19 -1 -2 -7 -7 -10 -11 -7 -4 4 5 20 20 35 27 29 27 29
19 4 -7 -24 -7 -24 8 -5 8 11 12 22 7 25 -4 3 -10 15 -14 28 -4 12 -12 22 -18
22 -6 0 -8 9 -5 21 4 16 2 19 -11 14 -11 -4 -9 2 7 19 13 14 28 23 32 20 5 -3
6 3 2 12 -5 13 -2 16 9 12 22 -9 42 8 43 34 l0 23 1709 3 c1586 2 1708 1 1695
-14 -12 -15 -11 -16 9 -10 13 5 22 3 22 -3 0 -6 10 -11 22 -11 12 0 18 3 15 7
-9 8 12 33 27 33 6 0 4 -4 -4 -10 -8 -5 -11 -12 -7 -16 4 -4 16 1 27 11 11 10
23 15 27 12 3 -4 1 -7 -6 -7 -7 0 -10 -3 -7 -8 2 -4 24 -7 48 -6 66 3 70 3 63
14 -4 7 353 10 1064 10 l1071 0 2 1968 c0 1082 0 1976 0 1987 -2 15 0 17 7 6
11 -18 24 2 26 41 2 24 -1 27 -17 22 -18 -5 -19 -1 -16 70 l3 76 -3617 0
-3618 0 0 -72z m-310 -123 c-7 -9 -15 -13 -18 -10 -3 2 1 11 8 20 7 9 15 13
18 10 3 -2 -1 -11 -8 -20z m35 -9 c-10 -14 -24 -26 -31 -26 -9 0 -5 10 13 30
31 35 42 33 18 -4z m7535 24 c0 -5 -5 -10 -11 -10 -5 0 -7 5 -4 10 3 6 8 10
11 10 2 0 4 -4 4 -10z m-7320 -4 c0 -3 -4 -8 -10 -11 -5 -3 -10 -1 -10 4 0 6
5 11 10 11 6 0 10 -2 10 -4z m-476 -30 c-3 -9 -10 -16 -15 -16 -5 0 -4 9 3 20
14 22 21 20 12 -4z m56 15 c0 -6 -4 -13 -10 -16 -5 -3 -10 1 -10 9 0 9 5 16
10 16 6 0 10 -4 10 -9z m219 -37 c-31 -33 -37 -22 -8 14 13 16 26 25 28 20 2
-5 -7 -20 -20 -34z m223 -16 c-20 -20 -15 -40 7 -29 26 14 31 5 31 -55 0 -40
-4 -53 -17 -59 -10 -3 -19 -1 -21 5 -3 8 -8 7 -18 -1 -12 -10 -18 -8 -29 7
-11 14 -17 16 -23 7 -5 -7 -13 -9 -22 -3 -11 7 -12 14 -2 34 6 14 10 26 7 26
-8 0 -34 -57 -29 -63 3 -3 -4 -3 -15 0 -21 5 -21 6 -5 31 33 51 54 68 63 53 7
-11 16 -6 40 20 17 19 31 38 31 43 0 5 3 6 7 3 4 -4 1 -13 -5 -19z m4503 -164
c33 -33 -4 -92 -42 -68 -10 6 -19 20 -21 31 -3 20 21 53 38 53 5 0 16 -7 25
-16z m1636 6 c34 -19 21 -80 -17 -80 -36 0 -54 43 -29 70 21 23 20 23 46 10z
m524 -14 c29 -43 -18 -89 -53 -54 -17 17 -15 44 4 62 21 22 31 20 49 -8z
m-7170 -6 c3 -5 1 -10 -4 -10 -6 0 -11 5 -11 10 0 6 2 10 4 10 3 0 8 -4 11
-10z m65 -11 c0 -5 -4 -9 -10 -9 -5 0 -10 5 -10 11 0 5 -5 7 -12 3 -7 -4 -8
-3 -4 4 7 12 36 5 36 -9z m6305 -9 c23 -11 54 -34 70 -50 l29 -30 -31 -31 -31
-31 -22 22 c-92 92 -257 45 -300 -86 -8 -22 -11 -68 -8 -114 5 -88 27 -133 86
-178 31 -23 45 -27 106 -27 55 0 77 4 98 20 32 23 58 72 58 109 0 25 -2 26
-65 26 l-65 0 0 40 0 40 110 0 110 0 0 -48 c0 -67 -26 -160 -56 -199 -43 -56
-96 -78 -194 -78 -68 0 -93 5 -125 22 -57 30 -94 70 -124 133 -23 49 -26 67
-26 165 0 100 3 115 27 160 54 102 138 154 247 155 45 0 78 -6 106 -20z
m-4907 -32 l-3 -43 -102 -3 -103 -3 -1 -42 c-1 -23 -2 -55 -3 -72 l-1 -30 108
-3 108 -3 -3 -42 -3 -42 -105 -5 -105 -5 0 -93 0 -92 80 -2 c44 -1 91 -2 105
-3 22 -1 25 -6 28 -43 l3 -42 -150 0 -151 0 0 305 0 305 151 0 150 0 -3 -42z
m-1628 2 c0 -5 -4 -10 -10 -10 -5 0 -10 5 -10 10 0 6 5 10 10 10 6 0 10 -4 10
-10z m685 -40 c7 0 16 8 18 18 5 18 11 -66 8 -108 -3 -48 -9 -55 -31 -35 -10
9 -16 24 -13 33 4 13 1 12 -10 -3 -14 -17 -18 -18 -26 -6 -7 12 -13 12 -24 3
-8 -7 -22 -10 -31 -6 -18 7 -22 24 -6 24 6 0 10 -5 10 -11 0 -5 5 -7 10 -4 6
4 4 12 -5 21 -17 18 -20 38 -4 28 7 -4 9 0 5 14 -7 21 13 35 38 26 9 -3 20 3
28 15 10 17 14 18 16 6 2 -8 10 -15 17 -15z m1714 -58 c88 -54 136 -178 112
-285 -27 -123 -116 -202 -226 -202 -170 2 -274 170 -219 354 19 67 91 143 150
159 59 17 131 7 183 -26z m322 -92 c63 -69 133 -147 157 -174 l42 -49 0 172 0
172 33 -3 32 -3 3 -252 c1 -149 -1 -253 -7 -253 -5 0 -78 77 -162 170 l-154
171 -3 -166 -2 -165 -35 0 -35 0 0 256 c0 143 4 254 9 252 5 -1 60 -59 122
-128z m645 115 c179 -53 224 -329 74 -457 -115 -99 -279 -58 -346 87 -66 140
4 328 137 370 57 18 76 18 135 0z m389 -172 c38 -95 72 -170 75 -168 4 2 37
83 75 180 37 96 70 173 72 171 6 -5 103 -474 103 -493 0 -8 -13 -13 -33 -13
l-34 0 -23 128 c-12 70 -25 133 -28 140 -2 7 -31 -51 -64 -130 -33 -79 -63
-146 -67 -150 -4 -4 -35 60 -70 142 -35 83 -66 149 -68 147 -2 -2 -10 -42 -18
-88 -34 -194 -32 -189 -71 -189 -29 0 -34 3 -30 18 3 9 26 124 52 255 26 131
50 234 54 230 3 -4 37 -85 75 -180z m3885 167 c11 -6 26 -23 35 -39 14 -28 14
-29 -16 -41 -26 -11 -32 -10 -53 9 -27 25 -44 26 -74 5 -23 -16 -29 -53 -12
-84 5 -10 36 -34 67 -53 88 -54 106 -77 111 -145 5 -71 -22 -116 -88 -149 -27
-14 -37 -22 -26 -23 29 0 56 -30 56 -61 0 -40 -24 -59 -75 -59 -55 0 -75 8
-75 30 0 15 7 16 50 12 33 -3 50 -1 50 7 0 6 0 14 1 19 0 4 -10 9 -23 12 -13
3 -25 16 -28 29 -3 16 -17 27 -40 35 -33 10 -80 64 -80 91 0 6 11 18 24 25 23
12 27 10 52 -19 22 -27 33 -32 62 -29 24 2 41 11 55 29 30 42 14 76 -63 127
-98 65 -113 82 -117 144 -5 64 20 111 70 134 34 15 103 12 137 -6z m-5852 -94
l3 -98 75 101 c73 98 76 101 115 101 21 0 39 -3 39 -8 0 -4 -36 -54 -81 -110
-44 -57 -79 -109 -76 -116 3 -7 44 -67 91 -133 47 -67 86 -124 86 -127 0 -3
-20 -6 -44 -6 l-45 0 -78 116 -78 116 -3 -116 -3 -116 -39 0 -40 0 0 251 0
250 38 -3 37 -3 3 -99z m2592 69 l0 -35 -85 0 -85 0 0 -65 0 -65 85 0 85 0 0
-35 0 -35 -85 0 -85 0 0 -80 0 -80 85 0 85 0 0 -35 0 -35 -120 0 -120 0 0 250
0 250 120 0 120 0 0 -35z m340 0 l0 -35 -55 0 -55 0 0 -215 0 -215 -40 0 -40
0 0 215 0 215 -57 0 -58 0 2 32 c1 18 2 34 2 36 1 1 69 2 151 2 l150 0 0 -35z
m246 12 c38 -20 58 -65 57 -129 -1 -57 -23 -96 -64 -112 -17 -6 -27 -16 -25
-23 3 -7 32 -52 64 -100 32 -49 62 -94 66 -100 5 -10 -4 -13 -34 -13 l-41 0
-72 110 -72 110 -3 -110 -3 -110 -34 0 -35 0 0 243 c0 134 3 247 8 251 12 13
155 0 188 -17z m222 -229 l2 -248 -40 0 -40 0 0 243 c0 134 3 247 7 251 4 4
21 6 38 4 l30 -3 3 -247z m174 152 c29 -55 55 -100 58 -100 3 0 29 45 58 100
51 97 54 100 87 100 19 0 35 -2 35 -4 0 -2 -34 -66 -75 -142 l-75 -139 0 -107
0 -108 -35 0 -35 0 0 113 0 113 -70 129 c-38 72 -70 133 -70 138 0 4 16 7 35
7 33 0 36 -3 87 -100z m532 62 l1 -32 -87 0 -88 0 0 -65 0 -65 85 0 85 0 0
-35 0 -35 -85 0 -85 0 0 -80 0 -80 84 0 84 0 4 -35 4 -35 -123 0 -123 0 0 250
0 251 122 -3 121 -3 1 -33z m936 -212 l0 -250 -40 0 -40 0 0 243 c0 134 3 247
7 250 3 4 21 7 40 7 l33 0 0 -250z m296 225 c37 -24 57 -80 51 -137 -7 -57
-23 -85 -59 -101 -16 -6 -28 -15 -28 -20 0 -4 29 -53 65 -108 36 -55 65 -102
65 -104 0 -3 -17 -5 -37 -5 -37 0 -40 3 -106 105 -38 58 -72 105 -75 105 -4 0
-6 -47 -4 -105 l3 -105 -35 0 -36 0 0 251 0 252 85 -5 c55 -4 94 -12 111 -23z
m214 -225 l0 -250 -35 0 -35 0 0 250 0 250 35 0 35 0 0 -250z m-6791 221 c12
-8 12 -12 2 -25 -19 -23 -29 -20 -27 9 1 27 4 29 25 16z m111 -65 c0 -2 -8
-10 -17 -17 -16 -13 -17 -12 -4 4 13 16 21 21 21 13z m-14 -61 c-9 -9 -16 -13
-16 -8 0 12 22 34 28 28 2 -2 -3 -11 -12 -20z m15 -294 c-11 -7 -10 -11 6 -19
14 -8 23 -8 31 0 13 13 13 11 16 -69 1 -35 -1 -38 -28 -40 -16 -1 -35 -4 -43
-7 -8 -3 -16 1 -19 9 -5 11 -11 12 -25 4 -25 -13 -24 2 2 32 11 13 18 31 16
41 -5 18 41 73 52 63 3 -4 -1 -10 -8 -14z m-236 -230 c-3 -6 -11 -11 -16 -11
-5 0 -4 6 3 14 14 16 24 13 13 -3z m-214 -14 c-10 -9 -11 -8 -5 6 3 10 9 15
12 12 3 -3 0 -11 -7 -18z m-41 -7 c0 -5 -4 -10 -10 -10 -5 0 -10 5 -10 10 0 6
5 10 10 10 6 0 10 -4 10 -10z m523 -7 c-4 -10 -2 -14 4 -10 14 9 19 -6 22 -64
l2 -46 -34 1 c-23 1 -33 5 -30 14 3 6 1 12 -5 12 -6 0 -12 -6 -15 -12 -2 -7
-8 -10 -12 -6 -4 4 -2 15 5 23 12 14 10 16 -11 12 -13 -2 -19 -2 -13 0 16 5
25 41 13 49 -16 10 12 35 32 29 9 -3 20 -1 24 5 10 16 25 11 18 -7z m-462 -17
c-9 -10 -9 -16 -1 -21 6 -4 9 -13 6 -21 -3 -8 0 -11 10 -7 22 8 16 -11 -12
-38 -22 -20 -24 -21 -18 -4 8 19 7 19 -19 2 -33 -21 -38 -21 -30 1 6 15 5 15
-10 3 -30 -24 -32 -2 -2 29 16 17 24 30 17 30 -6 0 -15 -8 -21 -17 -5 -10 -13
-14 -17 -10 -4 4 -2 13 4 19 9 9 9 15 -1 27 -10 12 -9 14 7 8 10 -4 25 -2 32
4 7 6 17 8 22 6 4 -3 14 -2 22 3 19 12 26 4 11 -14z m246 12 c-2 -7 0 -21 5
-30 5 -12 5 -18 -2 -18 -5 0 -10 -5 -10 -11 0 -6 7 -9 15 -5 21 8 19 -7 -5
-34 -16 -18 -23 -20 -34 -11 -10 9 -16 9 -21 1 -5 -8 -14 -3 -28 14 -19 23
-21 24 -33 8 -12 -15 -13 -13 -11 16 1 22 6 31 16 27 8 -3 11 0 8 9 -4 11 -1
13 11 9 9 -4 20 -11 25 -17 4 -6 6 0 5 14 -2 20 2 25 19 25 11 0 25 3 29 8 11
11 16 9 11 -5z m107 -39 c4 6 13 11 19 11 8 0 9 -3 1 -8 -5 -4 -17 -17 -25
-29 -16 -23 -16 -23 -16 8 0 16 4 25 7 18 6 -8 9 -8 14 0z m-454 -41 c0 -5 -4
-8 -10 -8 -5 0 -10 5 -10 11 0 6 -7 9 -14 6 -10 -4 -13 -1 -10 8 5 11 10 12
25 2 10 -6 19 -15 19 -19z m3285 -182 c0 -192 -1 -209 -17 -212 -12 -1 -18 4
-18 18 0 19 0 19 -26 -1 -18 -14 -41 -21 -71 -21 -78 0 -126 74 -108 167 10
56 54 93 108 93 30 0 53 -7 71 -21 l26 -20 0 106 c0 96 2 106 18 103 16 -3 17
-21 17 -212z m1633 71 l3 -138 55 50 c37 34 64 51 82 51 25 0 23 -3 -31 -58
l-58 -58 65 -62 64 -62 -33 0 c-29 0 -42 9 -87 60 l-53 61 -5 -62 c-4 -49 -9
-63 -22 -65 -17 -2 -18 14 -18 213 0 199 1 214 18 211 15 -3 17 -19 20 -141z
m270 -62 c1 -110 0 -205 -2 -212 -3 -7 -12 -10 -21 -7 -13 5 -15 36 -15 216 0
194 1 209 18 206 15 -3 17 -22 20 -203z m-4990 175 c-13 -20 -28 -27 -28 -12
0 10 22 32 32 32 5 0 3 -9 -4 -20z m2207 -135 c76 -187 70 -179 95 -120 29 68
89 210 101 242 5 14 11 24 13 22 4 -4 76 -381 76 -397 0 -9 -38 -9 -45 0 -1 2
-10 53 -20 113 -10 61 -21 115 -24 122 -4 7 -31 -45 -61 -114 -30 -69 -59
-126 -64 -125 -5 0 -32 54 -59 119 -27 65 -52 121 -56 126 -4 4 -15 -39 -25
-95 -26 -151 -25 -148 -53 -148 -18 0 -23 4 -19 18 3 9 19 91 36 182 32 171
40 204 45 198 2 -2 29 -66 60 -143z m-2255 125 c0 -5 -4 -10 -10 -10 -5 0 -10
5 -10 10 0 6 5 10 10 10 6 0 10 -4 10 -10z m4223 -70 c27 -44 52 -78 57 -75 5
3 28 39 51 80 37 65 47 75 71 75 l27 0 -62 -102 -62 -103 -5 -95 c-5 -87 -7
-95 -25 -95 -18 0 -20 8 -23 93 -3 100 -3 100 -120 280 -14 21 -13 22 14 22
26 0 35 -10 77 -80z m-1428 -91 c50 -44 62 -96 36 -153 -23 -53 -61 -76 -126
-76 -37 0 -52 6 -81 33 -30 28 -37 42 -41 83 -8 84 47 144 134 144 33 0 50 -7
78 -31z m593 15 c28 -19 52 -65 52 -99 l0 -25 -95 0 c-89 0 -95 -1 -95 -20 0
-29 44 -70 74 -70 13 0 39 12 56 26 28 24 33 25 46 12 14 -13 12 -18 -16 -42
-25 -21 -42 -26 -84 -26 -61 0 -92 18 -112 66 -28 67 -7 151 45 179 35 19 101
19 129 -1z m262 12 c0 -21 -17 -36 -41 -36 -44 0 -59 -31 -59 -126 0 -72 -2
-82 -19 -87 -11 -3 -22 -2 -25 1 -3 3 -6 59 -6 124 0 111 1 118 20 118 14 0
20 -7 20 -21 0 -21 1 -21 25 5 16 17 34 26 55 26 16 0 30 -2 30 -4z m240 -16
c27 -27 31 -51 28 -150 -3 -77 -5 -85 -23 -85 -18 0 -20 8 -25 95 -3 52 -9
101 -13 108 -12 18 -77 15 -99 -5 -15 -13 -18 -32 -18 -105 0 -87 0 -88 -25
-88 l-25 0 0 120 0 120 25 0 c14 0 25 -5 25 -11 0 -5 10 -3 22 5 32 23 103 21
128 -4z m684 -1 c21 -17 26 -18 26 -5 0 9 8 16 20 16 19 0 20 -7 20 -124 0
-111 -2 -124 -17 -122 -9 2 -19 10 -23 20 -5 16 -7 16 -24 -3 -28 -31 -109
-29 -141 3 -62 62 -51 183 20 224 32 18 89 14 119 -9z m710 0 c21 -17 26 -18
26 -5 0 10 9 16 25 16 l25 0 0 -119 c0 -86 -3 -120 -12 -123 -19 -7 -38 2 -38
18 0 10 -5 9 -20 -6 -37 -37 -105 -29 -149 17 -32 34 -33 38 -29 100 4 59 8
69 36 94 40 36 96 39 136 8z m287 2 c19 -16 21 -22 12 -32 -10 -10 -19 -9 -47
6 -29 16 -37 17 -51 5 -27 -22 -14 -51 32 -69 53 -21 83 -48 83 -76 0 -29 -37
-75 -60 -75 -10 0 -22 -4 -25 -10 -3 -5 2 -10 12 -10 27 0 43 -20 43 -51 0
-38 -21 -51 -77 -47 -35 2 -49 7 -51 19 -3 14 4 16 42 12 41 -5 46 -4 46 15 0
14 -7 22 -22 24 -15 2 -22 9 -20 19 1 10 -12 25 -33 38 -35 20 -46 46 -22 54
6 2 23 -4 36 -14 27 -22 52 -24 69 -7 24 24 13 48 -32 68 -85 36 -107 80 -61
125 31 31 92 34 126 6z m409 -1 l21 -21 26 21 c34 26 96 27 122 1 25 -25 33
-68 29 -161 -3 -67 -5 -75 -23 -75 -18 0 -20 8 -25 100 -5 92 -7 100 -29 111
-35 18 -77 0 -90 -38 -6 -17 -11 -64 -11 -104 0 -63 -2 -72 -17 -70 -15 2 -19
17 -23 99 -5 99 -11 113 -45 118 -61 9 -85 -34 -85 -148 0 -56 -2 -63 -20 -63
-19 0 -20 7 -20 120 0 112 1 120 19 120 11 0 23 -5 26 -10 4 -7 14 -5 28 5 31
22 93 19 117 -5z m-272 -112 c-3 -115 -4 -123 -23 -123 -19 0 -20 8 -23 123
l-3 122 26 0 26 0 -3 -122z m-5778 98 c0 -3 -4 -8 -10 -11 -5 -3 -10 -1 -10 4
0 6 5 11 10 11 6 0 10 -2 10 -4z m63 -21 c-3 -9 -8 -14 -10 -11 -3 3 -2 9 2
15 9 16 15 13 8 -4z m111 -10 c-15 -14 -29 -25 -32 -25 -3 0 5 11 18 25 13 14
27 25 32 25 5 0 -3 -11 -18 -25z m46 -5 c-10 -18 -9 -24 1 -32 10 -6 6 -7 -11
-2 -35 9 -35 11 -9 38 28 29 36 27 19 -4z m69 -14 c0 -6 -3 -5 -6 2 -5 14 -33
17 -33 3 0 -5 5 -11 12 -13 6 -2 8 -10 4 -17 -6 -9 -12 -5 -22 15 -13 24 -12
28 3 40 15 11 20 11 31 -3 6 -9 12 -22 11 -27z m201 22 c0 6 5 12 11 12 8 0 8
-5 -1 -15 -10 -12 -10 -18 0 -30 9 -10 9 -15 1 -15 -6 0 -11 5 -11 12 0 6 -8
4 -20 -7 -17 -16 -21 -16 -35 -2 -14 15 -14 18 6 41 21 24 23 24 35 8 8 -10
13 -12 14 -4z m-534 -25 c-10 -10 -19 5 -10 18 6 11 8 11 12 0 2 -7 1 -15 -2
-18z m64 18 c0 -12 -20 -25 -27 -18 -7 7 6 27 18 27 5 0 9 -4 9 -9z m0 -40 c0
-5 -7 -11 -14 -14 -10 -4 -13 -1 -9 9 6 15 23 19 23 5z m-5 -190 c-3 -6 -11
-11 -17 -11 -6 0 -6 6 2 15 14 17 26 13 15 -4z m1346 -911 c1 -82 2 -158 3
-167 1 -13 -8 -19 -26 -21 l-28 -3 0 170 0 171 25 0 25 0 1 -150z m3079 125
c0 -24 -2 -25 -65 -25 l-65 0 0 -40 0 -40 65 0 c63 0 65 -1 65 -25 0 -24 -2
-25 -65 -25 l-65 0 0 -55 0 -55 66 0 c62 0 65 -1 62 -22 -3 -22 -7 -23 -93
-23 l-90 0 -3 168 -2 167 95 0 c95 0 95 0 95 -25z m-2122 -62 c59 -37 79 -129
42 -190 -59 -98 -214 -77 -251 34 -39 119 101 225 209 156z m824 17 c23 0 48
-28 42 -45 -5 -11 -11 -12 -24 -5 -10 6 -37 10 -60 10 -58 0 -90 -33 -90 -95
0 -35 6 -52 25 -70 29 -29 88 -34 123 -9 21 14 22 14 22 -10 0 -32 -26 -46
-82 -46 -102 0 -165 98 -124 193 23 55 82 92 131 82 11 -3 28 -5 37 -5z m471
-18 c38 -23 71 -92 62 -134 -21 -102 -133 -151 -216 -95 -43 29 -59 60 -59
117 0 111 113 170 213 112z m1070 6 c9 -5 17 -18 17 -29 0 -17 -3 -18 -22 -8
-11 6 -39 11 -62 11 -56 -1 -86 -35 -86 -98 0 -34 6 -51 25 -69 29 -29 88 -34
123 -9 21 14 22 14 22 -10 0 -31 -25 -46 -80 -46 -80 0 -140 57 -140 133 0
108 108 175 203 125z m275 -4 c85 -55 80 -194 -9 -240 -96 -49 -220 33 -206
136 14 104 129 159 215 104z m609 0 c55 -35 77 -116 48 -177 -62 -131 -265
-82 -265 63 0 103 129 171 217 114z m1306 10 c10 -3 17 -15 17 -30 0 -22 -2
-23 -21 -14 -29 16 -96 15 -116 -1 -48 -40 -47 -133 2 -165 25 -16 80 -16 118
0 13 6 17 3 17 -13 0 -27 -28 -41 -82 -41 -128 0 -186 156 -90 243 36 33 86
40 155 21z m175 5 c32 -11 48 -34 31 -45 -6 -3 -23 0 -40 6 -23 10 -32 10 -44
0 -23 -19 -18 -39 16 -58 61 -33 89 -62 89 -93 0 -44 -39 -79 -90 -79 -56 0
-106 51 -65 67 9 3 21 -2 28 -12 9 -11 23 -16 42 -13 24 2 31 8 33 29 3 22 -4
31 -39 50 -23 13 -51 36 -62 50 -17 24 -18 30 -6 55 8 16 25 34 39 41 31 16
30 15 68 2z m-5518 -84 c47 -47 88 -85 92 -85 5 0 8 38 8 85 0 69 3 85 15 85
13 0 15 -22 15 -137 l0 -138 -95 95 -95 95 0 -93 c0 -84 -2 -93 -17 -90 -16 3
-18 19 -21 136 -1 72 1 132 5 132 5 0 46 -38 93 -85z m348 68 c-2 -12 -14 -19
-35 -21 l-32 -3 -3 -112 c-3 -97 -5 -112 -20 -115 -16 -3 -18 7 -18 112 l0
116 -33 0 c-38 0 -48 6 -40 26 4 11 27 14 95 14 80 0 89 -2 86 -17z m145 6
c30 -16 37 -28 37 -66 0 -22 -8 -38 -26 -52 l-27 -21 28 -40 c16 -23 32 -43
37 -46 15 -10 8 -34 -10 -34 -11 0 -36 25 -63 61 l-44 61 -3 -61 c-3 -52 -6
-62 -20 -59 -15 3 -17 20 -20 136 l-3 132 46 0 c26 0 56 -5 68 -11z m562 -3
c47 -20 68 -65 63 -133 -7 -86 -59 -122 -175 -123 l-43 0 0 135 0 135 60 0
c33 0 76 -6 95 -14z m155 -73 c0 -110 12 -137 62 -141 55 -5 68 21 68 136 0
91 1 93 23 90 21 -3 22 -8 23 -86 3 -142 -20 -182 -103 -182 -54 0 -88 16
-102 47 -6 13 -11 69 -11 123 0 93 1 100 20 100 18 0 20 -7 20 -87z m650 67
c0 -16 -7 -20 -35 -20 l-34 0 -3 -112 c-3 -105 -4 -113 -23 -113 -19 0 -20 8
-23 113 l-3 112 -29 0 c-23 0 -30 4 -30 20 0 19 7 20 90 20 83 0 90 -1 90 -20z
m460 0 c33 -33 21 -120 -15 -120 -22 0 -19 -8 25 -67 35 -46 38 -54 24 -60
-17 -6 -36 11 -96 87 l-27 35 -1 -63 c0 -55 -2 -63 -17 -60 -16 3 -18 19 -21
136 l-3 132 56 0 c42 0 60 -5 75 -20z m115 -30 c16 -27 32 -50 35 -50 3 0 18
23 35 50 22 37 35 50 53 50 26 0 27 2 -29 -81 -32 -48 -38 -66 -41 -120 -3
-56 -5 -64 -23 -64 -18 0 -21 8 -25 70 -5 68 -10 81 -68 173 -13 21 -13 22 10
22 18 0 31 -12 53 -50z m1207 -37 l88 -88 0 88 c0 80 2 87 20 87 19 0 20 -7
20 -137 l0 -138 -95 95 -94 94 -3 -90 c-2 -71 -6 -89 -18 -89 -12 0 -15 23
-18 133 -1 72 1 132 5 132 4 0 47 -39 95 -87z m592 -5 l43 -93 16 35 c49 112
68 152 73 147 9 -9 63 -250 58 -259 -8 -12 -31 -10 -36 5 -3 6 -11 43 -19 80
l-13 69 -38 -83 c-21 -46 -42 -78 -46 -73 -5 5 -22 39 -38 76 -16 37 -32 68
-35 68 -3 0 -12 -32 -19 -70 -14 -73 -21 -86 -45 -77 -11 5 -11 14 0 59 7 29
21 88 30 131 9 42 19 77 22 77 2 0 24 -42 47 -92z m376 72 c0 -17 -7 -20 -50
-20 -49 0 -50 -1 -50 -30 0 -29 1 -30 50 -30 43 0 50 -3 50 -20 0 -17 -7 -20
-50 -20 l-50 0 0 -45 0 -45 50 0 c44 0 50 -3 50 -20 0 -19 -5 -21 -72 -18
l-73 3 -3 133 -3 132 76 0 c68 0 75 -2 75 -20z m200 0 c0 -16 -7 -20 -35 -20
l-35 0 0 -116 c0 -105 -2 -115 -17 -112 -16 3 -18 18 -21 116 l-3 112 -34 0
c-28 0 -35 4 -35 20 0 19 7 20 90 20 83 0 90 -1 90 -20z m160 0 c34 -34 19
-120 -21 -120 -16 0 -10 -14 31 -68 22 -29 40 -55 40 -58 0 -3 -10 -4 -22 -2
-13 2 -39 25 -60 53 -21 27 -42 51 -47 53 -6 2 -9 -20 -8 -50 2 -47 0 -53 -18
-53 -19 0 -20 8 -23 133 l-3 132 56 0 c42 0 60 -5 75 -20z m120 -115 c0 -128
-1 -135 -20 -135 -19 0 -20 7 -20 135 0 128 1 135 20 135 19 0 20 -7 20 -135z
m-2903 -523 c3 -120 2 -122 -20 -121 -12 0 -34 -3 -49 -6 -21 -6 -32 -1 -52
18 -32 32 -34 74 -5 111 22 28 48 33 80 16 18 -10 19 -7 19 50 0 45 3 61 13
58 8 -3 13 -40 14 -126z m1773 69 l0 -59 30 11 c49 19 64 2 70 -77 4 -49 2
-66 -7 -66 -9 0 -13 18 -13 55 0 57 -16 79 -50 67 -24 -8 -30 -23 -30 -74 0
-32 -4 -48 -12 -48 -10 0 -12 23 -11 87 1 49 2 105 3 126 0 20 5 37 10 37 6 0
10 -26 10 -59z m-2525 -38 c71 -164 67 -153 50 -153 -9 0 -23 16 -31 35 -13
33 -17 35 -58 35 -42 0 -45 -2 -57 -35 -8 -21 -20 -35 -30 -35 -14 0 -8 20 34
120 28 66 52 120 53 120 1 0 19 -39 39 -87z m266 -57 c7 -20 16 -36 19 -36 4
0 16 28 29 63 12 34 28 73 36 87 l13 25 6 -25 c4 -14 14 -67 24 -118 17 -83
17 -92 3 -90 -11 2 -20 24 -28 72 -7 38 -14 70 -16 72 -1 1 -16 -31 -32 -72
-16 -41 -33 -74 -36 -74 -4 0 -20 31 -35 70 -15 38 -30 67 -34 65 -4 -3 -10
-27 -14 -55 -8 -63 -15 -80 -30 -80 -9 0 -7 29 10 113 12 61 23 114 24 117 2
6 44 -86 61 -134z m1202 12 c38 -91 42 -108 28 -108 -10 0 -22 14 -30 35 -11
33 -15 35 -56 35 -41 0 -44 -2 -55 -35 -8 -23 -18 -35 -30 -35 -16 0 -11 16
33 115 28 64 54 112 58 108 4 -4 27 -56 52 -115z m-929 31 c88 -40 26 -176
-63 -139 -54 22 -63 88 -18 130 24 23 45 25 81 9z m366 -11 c11 -13 19 -32 18
-43 -3 -17 -10 -20 -53 -20 -39 0 -50 -4 -53 -18 -5 -26 37 -39 67 -20 32 21
51 1 20 -21 -31 -22 -61 -20 -93 5 -37 29 -37 89 0 118 35 27 68 27 94 -1z
m138 10 c-3 -7 -15 -15 -29 -18 -21 -5 -24 -12 -27 -63 -2 -42 -7 -57 -17 -57
-12 0 -15 16 -15 71 0 66 1 71 20 66 11 -3 23 -1 26 4 8 14 46 11 42 -3z m133
2 c16 -9 19 -22 19 -75 0 -80 -18 -86 -22 -7 l-3 57 -35 0 -35 0 -3 -57 c-2
-43 -7 -58 -17 -58 -12 0 -15 16 -15 71 0 65 2 71 19 66 10 -2 25 -1 32 4 19
12 36 11 60 -1z m479 -12 c27 -29 27 -91 0 -118 -21 -21 -65 -27 -75 -10 -14
23 -25 7 -25 -35 0 -25 -4 -45 -10 -45 -6 0 -10 44 -10 111 0 104 1 110 19
104 11 -3 22 -1 26 5 11 17 53 11 75 -12z m177 0 c30 -28 32 -89 3 -118 -21
-21 -65 -27 -75 -10 -14 23 -25 7 -25 -36 0 -27 -4 -43 -10 -39 -6 3 -10 52
-10 112 0 84 3 104 13 100 8 -3 20 -1 28 4 24 15 52 10 76 -13z m143 7 c0 -8
-8 -15 -18 -15 -30 0 -42 -21 -42 -72 0 -26 -4 -48 -10 -48 -6 0 -10 30 -10
71 0 55 3 70 13 66 8 -3 20 -1 28 4 21 13 39 11 39 -6z m145 -10 c16 -15 25
-36 25 -55 0 -38 -39 -80 -74 -80 -39 0 -79 41 -79 80 0 24 7 40 27 57 35 30
71 29 101 -2z m173 14 c21 1 22 -3 22 -69 0 -66 -1 -70 -22 -69 -13 0 -34 -3
-48 -6 -18 -5 -33 0 -50 13 -55 45 -16 154 50 137 14 -3 35 -6 48 -6z m170
-10 c2 -12 -4 -15 -28 -11 -38 5 -60 -12 -60 -48 0 -34 21 -52 57 -50 44 3 49
0 29 -15 -29 -22 -64 -18 -93 11 -21 21 -24 32 -19 62 3 20 15 45 27 55 27 22
82 19 87 -4z m-1398 -398 l0 -49 40 5 c36 5 40 3 50 -21 16 -42 13 -106 -5
-106 -11 0 -15 12 -15 50 0 38 -4 52 -16 57 -30 11 -49 -11 -52 -61 -2 -25 -7
-46 -13 -46 -5 0 -9 48 -9 110 0 67 4 110 10 110 6 0 10 -22 10 -49z m485 -65
c0 -89 -2 -106 -15 -105 -8 1 -24 -2 -34 -6 -12 -5 -29 -3 -45 6 -32 18 -42
87 -16 113 19 19 56 21 73 4 9 -9 12 1 12 46 0 42 3 57 13 53 8 -2 12 -34 12
-111z m-1020 89 c0 -5 -17 -11 -37 -13 -26 -2 -39 -9 -43 -22 -9 -29 2 -40 41
-40 46 0 44 -18 -3 -22 l-38 -3 0 -48 c0 -31 -4 -47 -12 -47 -10 0 -13 28 -13
106 l0 105 53 -3 c28 -2 52 -7 52 -13z m863 3 c-3 -7 -21 -14 -41 -16 -34 -3
-37 -6 -37 -33 0 -27 2 -29 40 -29 22 0 40 -4 40 -10 0 -5 -18 -10 -40 -10
l-40 0 0 -40 0 -40 40 0 c22 0 40 -4 40 -10 0 -5 -25 -10 -55 -10 l-55 0 0
105 0 105 56 0 c40 0 55 -4 52 -12z m230 -6 c2 -7 -3 -12 -12 -12 -9 0 -16 7
-16 16 0 17 22 14 28 -4z m140 0 c2 -7 -3 -12 -12 -12 -9 0 -16 7 -16 16 0 17
22 14 28 -4z m-768 -36 c0 -13 6 -27 13 -30 10 -5 10 -7 0 -12 -8 -3 -13 -26
-13 -60 0 -30 -4 -54 -10 -54 -5 0 -10 25 -10 55 0 56 -3 60 -45 55 -27 -3
-35 -17 -35 -67 0 -28 -4 -43 -12 -43 -9 0 -13 19 -13 63 0 67 -3 64 68 66 33
1 37 4 37 26 0 14 5 25 10 25 6 0 10 -11 10 -24z m690 -1 c0 -16 6 -25 15 -25
8 0 15 -4 15 -9 0 -5 -7 -11 -15 -15 -11 -4 -15 -20 -15 -56 0 -27 -4 -50 -10
-50 -5 0 -10 24 -10 54 0 34 -5 57 -12 60 -10 5 -10 7 0 12 6 3 12 17 12 30 0
13 5 24 10 24 6 0 10 -11 10 -25z m-1021 -51 c12 -15 21 -35 21 -46 0 -24 -44
-68 -68 -68 -33 0 -72 38 -72 71 0 65 80 93 119 43z m71 -18 c0 -54 21 -81 51
-66 15 8 19 22 19 60 0 28 5 50 10 50 6 0 10 -24 10 -54 0 -61 -16 -86 -55
-86 -39 0 -55 25 -55 86 0 30 5 54 10 54 6 0 10 -20 10 -44z m880 -21 c0 -37
-4 -65 -10 -65 -6 0 -10 28 -10 65 0 37 4 65 10 65 6 0 10 -28 10 -65z m150 0
c0 -51 -3 -65 -15 -65 -12 0 -15 14 -15 65 0 51 3 65 15 65 12 0 15 -14 15
-65z m144 49 c51 -50 7 -137 -60 -120 -75 19 -62 136 16 136 16 0 36 -7 44
-16z m163 5 c19 -16 18 -119 -1 -119 -11 0 -16 15 -18 53 -3 48 -5 52 -28 52
-20 0 -26 -7 -32 -35 -4 -19 -5 -43 -2 -52 4 -12 0 -18 -10 -18 -13 0 -16 12
-16 63 l0 63 47 2 c25 1 52 -3 60 -9z m-4010 -480 c-15 -11 -24 -25 -21 -31 4
-6 10 -5 15 3 8 12 11 12 18 0 8 -13 12 -13 27 0 16 12 17 12 11 -3 -5 -14 -1
-16 23 -13 16 2 35 7 41 10 8 5 9 1 4 -15 -7 -22 -6 -22 20 4 34 34 21 53 -38
59 -23 2 3 4 59 5 l101 2 -3 -36 c-1 -20 0 -33 3 -30 8 7 33 -13 33 -26 0 -6
-7 -8 -15 -4 -10 4 -15 -1 -15 -14 0 -14 -5 -18 -17 -13 -15 6 -16 4 -5 -9 11
-14 9 -16 -15 -15 -15 1 -31 6 -35 12 -4 5 -10 6 -14 2 -4 -3 -1 -13 6 -22 7
-9 8 -15 2 -15 -6 0 -12 6 -15 13 -3 9 -7 9 -19 0 -12 -11 -14 -9 -14 8 1 12
-9 28 -22 36 -20 14 -22 14 -16 -1 3 -9 1 -16 -5 -16 -6 0 -11 5 -11 11 0 8
-4 8 -15 -1 -8 -6 -19 -9 -25 -5 -6 4 -9 -3 -7 -17 2 -24 -9 -27 -52 -13 -17
5 -22 4 -16 -5 5 -8 3 -11 -6 -8 -8 3 -13 12 -11 21 2 12 -2 15 -14 10 -14 -5
-16 -3 -11 11 5 13 3 17 -7 13 -21 -8 -8 31 17 48 l21 15 -24 25 -23 25 59 0
59 -1 -28 -20z m53 17 c0 -2 -7 -9 -15 -16 -13 -11 -14 -10 -9 4 5 14 24 23
24 12z m-1045 -381 c1 -36 -2 -44 -13 -40 -12 4 -13 3 -2 -10 10 -12 10 -18
-1 -31 -10 -13 -10 -17 1 -24 8 -5 11 -12 8 -16 -11 -11 -38 23 -32 40 4 12 2
15 -9 10 -8 -3 -18 -15 -22 -27 -4 -15 -8 -18 -12 -9 -3 7 4 23 14 35 35 39
35 44 -2 41 -19 -1 -35 0 -35 4 0 15 64 70 76 65 8 -3 14 1 14 8 0 7 3 9 7 6
4 -4 7 -28 8 -52z m1625 -15 c0 -5 -5 -10 -11 -10 -5 0 -7 5 -4 10 3 6 8 10
11 10 2 0 4 -4 4 -10z m-1690 -30 c0 -5 -5 -10 -11 -10 -5 0 -7 5 -4 10 3 6 8
10 11 10 2 0 4 -4 4 -10z m28 -81 c12 -19 11 -20 -10 -14 -16 4 -19 3 -9 -3
11 -8 10 -13 -5 -31 -10 -11 -25 -21 -34 -21 -11 1 -9 6 8 20 13 11 21 24 18
29 -7 10 3 41 13 41 3 0 12 -9 19 -21z m1557 -302 c17 6 17 4 -3 -17 -12 -13
-24 -32 -28 -42 -6 -19 -10 -20 -56 -22 -24 -2 -26 0 -13 14 19 21 19 31 0 24
-17 -7 -21 11 -5 21 16 10 43 -16 30 -29 -12 -12 -13 -26 -1 -26 14 0 19 31
10 57 -6 17 -5 21 5 17 8 -3 17 0 21 6 6 9 9 9 15 1 4 -7 15 -9 25 -4z m-2
-64 c4 -3 -1 -12 -11 -19 -25 -20 -34 -17 -20 6 13 21 21 24 31 13z m237 -52
c0 -5 -6 -11 -12 -14 -10 -3 -9 -8 2 -22 14 -17 14 -17 -7 -7 -16 9 -23 9 -26
-1 -3 -6 -6 -7 -6 -2 -1 13 31 55 42 55 4 0 7 -4 7 -9z m-278 -133 c-8 -8 -9
-15 0 -25 8 -10 7 -18 -6 -31 -9 -10 -16 -23 -16 -28 0 -5 5 -2 10 6 9 13 11
13 19 1 8 -12 12 -12 25 -2 9 8 16 9 16 5 0 -5 -9 -15 -20 -22 -15 -9 -20 -9
-20 0 0 9 -3 9 -12 0 -9 -9 -15 -9 -26 0 -10 9 -15 9 -22 -2 -7 -11 -11 -10
-25 3 -15 15 -15 18 4 39 17 17 18 24 8 37 -10 12 -9 14 6 8 11 -4 28 -1 40 8
26 18 36 20 19 3z m28 -13 c-7 -9 -15 -13 -17 -11 -7 7 7 26 19 26 6 0 6 -6
-2 -15z m61 -18 c-10 -9 -11 -8 -5 6 3 10 9 15 12 12 3 -3 0 -11 -7 -18z
m-313 -12 c-3 -3 -9 2 -12 12 -6 14 -5 15 5 6 7 -7 10 -15 7 -18z m152 5 c0
-5 -4 -10 -10 -10 -5 0 -10 5 -10 10 0 6 5 10 10 10 6 0 10 -4 10 -10z m110
-10 c-6 -11 -15 -20 -20 -20 -16 0 -11 18 8 29 24 14 24 14 12 -9z m-285 0 c3
-5 1 -10 -4 -10 -6 0 -11 5 -11 10 0 6 2 10 4 10 3 0 8 -4 11 -10z m-5 -42 c0
-6 -7 -5 -15 2 -8 7 -15 17 -15 22 0 6 7 5 15 -2 8 -7 15 -17 15 -22z m20
-204 c0 -2 -7 -4 -15 -4 -8 0 -15 4 -15 10 0 5 7 7 15 4 8 -4 15 -8 15 -10z
m487 -94 c-3 -10 0 -21 7 -23 7 -3 5 -11 -7 -23 -10 -11 -17 -14 -16 -9 4 23
-2 27 -20 11 -17 -16 -18 -15 -17 12 1 21 5 28 17 25 9 -3 19 3 22 11 9 23 20
20 14 -4z m-214 -107 c-6 -16 13 -17 23 -2 4 8 9 7 14 -2 7 -10 12 -10 23 0
10 8 17 9 22 1 3 -5 2 -10 -3 -10 -5 0 -23 -14 -41 -31 -26 -24 -35 -28 -47
-18 -17 14 -19 -2 -1 -20 10 -10 8 -12 -8 -10 -11 2 -26 0 -32 -4 -9 -5 -13
-2 -13 9 0 14 -3 14 -15 4 -20 -16 -28 -7 -28 30 0 16 -4 27 -9 24 -5 -4 -4 3
4 15 15 24 33 29 24 6 -7 -20 -4 -19 23 4 24 21 71 24 64 4z m207 -123 c0 -5
-4 -10 -10 -10 -5 0 -10 5 -10 10 0 6 5 10 10 10 6 0 10 -4 10 -10z m0 -74 c0
-3 -4 -8 -10 -11 -5 -3 -10 -1 -10 4 0 6 5 11 10 11 6 0 10 -2 10 -4z m-242
-95 c-7 -12 -16 -21 -21 -21 -4 0 0 11 10 24 22 29 30 27 11 -3z m495 -93 c4
-10 8 -9 16 2 9 13 11 13 11 -2 0 -9 -8 -21 -17 -27 -17 -9 -17 -10 0 -28 27
-31 20 -37 -9 -7 -21 20 -24 28 -13 34 7 5 10 12 6 16 -3 4 -13 1 -22 -6 -18
-15 -20 -5 -2 15 15 18 24 19 30 3z m92 -179 c11 -16 1 -19 -13 -3 -7 8 -8 14
-3 14 5 0 13 -5 16 -11z m107 -81 c-7 -7 -12 -8 -12 -2 0 14 12 26 19 19 2 -3
-1 -11 -7 -17z m11 -84 c-6 -15 -4 -15 19 0 27 17 58 13 58 -9 0 -7 -6 -16
-12 -18 -9 -4 -10 -6 -1 -6 6 -1 19 6 27 15 20 20 21 5 1 -23 -12 -17 -12 -23
-2 -27 6 -3 3 -4 -8 -1 -13 3 -26 -2 -35 -15 -8 -11 -18 -20 -23 -20 -5 0 -5
6 1 13 17 20 -2 40 -28 32 -19 -6 -22 -4 -16 10 4 13 2 16 -9 11 -20 -7 -19 5
3 32 20 26 34 29 25 6z m139 -26 c-7 -7 -12 -8 -12 -2 0 6 3 14 7 17 3 4 9 5
12 2 2 -3 -1 -11 -7 -17z m-122 -44 c0 -7 -27 -34 -34 -34 -4 0 -1 9 6 20 12
19 28 27 28 14z m284 -196 c-17 -33 -16 -33 3 -15 28 24 41 21 15 -4 -12 -11
-27 -17 -33 -14 -5 4 -16 1 -24 -5 -34 -28 -12 8 29 50 27 28 29 25 10 -12z
m-39 2 c3 -5 1 -10 -4 -10 -6 0 -11 5 -11 10 0 6 2 10 4 10 3 0 8 -4 11 -10z
m115 0 c0 -5 -5 -10 -11 -10 -5 0 -7 5 -4 10 3 6 8 10 11 10 2 0 4 -4 4 -10z
m-157 -35 c-3 -9 -8 -14 -10 -11 -3 3 -2 9 2 15 9 16 15 13 8 -4z m427 -209
c0 -3 -4 -8 -10 -11 -5 -3 -10 -1 -10 4 0 6 5 11 10 11 6 0 10 -2 10 -4z
m-120 -21 c19 -23 -5 -48 -31 -32 -10 6 -19 16 -19 21 0 4 7 3 15 -4 9 -7 19
-9 23 -5 4 4 1 10 -5 12 -15 5 -18 23 -4 23 5 0 14 -7 21 -15z m150 11 c0 -2
-8 -10 -17 -17 -16 -13 -17 -12 -4 4 13 16 21 21 21 13z m295 -216 c3 -5 1
-10 -4 -10 -6 0 -11 5 -11 10 0 6 2 10 4 10 3 0 8 -4 11 -10z m45 -5 c0 -8 -4
-15 -10 -15 -5 0 -10 7 -10 15 0 8 5 15 10 15 6 0 10 -7 10 -15z m-285 -44
c-3 -6 -11 -11 -16 -11 -5 0 -4 6 3 14 14 16 24 13 13 -3z m60 -17 c-9 -9 -19
-13 -23 -10 -3 4 0 11 8 16 24 15 33 11 15 -6z m-45 -8 c0 -3 -4 -8 -10 -11
-5 -3 -10 -1 -10 4 0 6 5 11 10 11 6 0 10 -2 10 -4z m340 -25 c0 -5 -7 -11
-14 -14 -10 -4 -13 -1 -9 9 6 15 23 19 23 5z m5000 -531 c8 -5 11 -10 5 -10
-5 0 -17 5 -25 10 -8 5 -10 10 -5 10 6 0 17 -5 25 -10z m248 -25 c-12 -12 -51
-8 -55 5 -4 13 -3 13 6 0 9 -13 12 -13 28 3 11 10 19 13 21 7 2 -6 2 -13 0
-15z m-4608 -85 c-12 -8 -12 -10 2 -15 9 -4 19 -13 22 -22 4 -11 2 -13 -9 -9
-8 3 -15 1 -15 -4 0 -6 5 -10 10 -10 7 0 7 -7 -1 -21 -9 -17 -8 -23 2 -30 8
-5 10 -9 4 -9 -22 0 -35 17 -29 35 6 15 4 17 -11 12 -16 -7 -17 -6 -1 18 14
21 14 24 1 19 -8 -4 -15 -3 -15 2 0 12 43 55 49 48 3 -3 -1 -9 -9 -14z m-210
-15 c-15 -18 1 -20 18 -3 9 9 12 9 13 -2 4 -93 5 -88 -24 -93 -32 -4 -67 15
-48 27 6 4 9 16 6 27 -5 15 -3 18 12 12 14 -5 16 -3 6 7 -9 9 -9 16 0 26 16
18 32 18 17 -1z m524 0 c-4 -8 -2 -15 4 -15 6 0 13 6 15 13 4 9 6 9 6 0 1 -7
-9 -17 -20 -24 -15 -8 -19 -8 -15 0 4 6 3 11 -3 11 -6 0 -15 -9 -21 -20 -13
-23 -35 -27 -26 -4 3 8 2 12 -4 9 -13 -8 -12 6 1 25 8 11 12 12 16 3 3 -10 10
-10 26 2 27 19 28 19 21 0z m4066 -10 c-15 -16 -17 -24 -9 -32 9 -9 7 -16 -6
-29 -17 -17 -17 -17 -11 3 4 12 2 24 -4 28 -8 5 -8 11 1 21 7 9 8 14 1 14 -6
0 -17 -8 -24 -18 -18 -26 -39 -37 -32 -18 3 9 11 16 18 16 6 0 2 8 -9 16 -20
16 -20 16 3 9 12 -3 22 -2 22 3 0 6 16 10 35 9 l35 -1 -20 -21z m-4856 4 c11
9 16 10 16 2 0 -6 -4 -11 -10 -11 -5 0 -10 -4 -10 -10 0 -5 7 -10 15 -10 8 0
15 5 15 11 0 5 5 7 12 3 9 -6 9 -9 0 -12 -16 -5 -15 -22 2 -22 7 0 18 -6 24
-12 7 -10 3 -18 -16 -32 -18 -14 -24 -15 -20 -5 4 9 -2 14 -19 15 -19 2 -22
-1 -12 -12 7 -8 7 -14 1 -14 -5 0 -15 7 -22 15 -10 13 -10 19 4 33 19 22 21
36 4 29 -8 -3 -14 5 -15 21 -1 17 2 21 7 12 7 -11 11 -11 24 -1z m4456 2 c0
-5 -7 -12 -16 -15 -14 -5 -15 -4 -4 9 14 17 20 19 20 6z m209 6 c-2 -1 -13 -9
-24 -17 -19 -14 -19 -14 -6 3 7 9 18 17 24 17 6 0 8 -1 6 -3z m-143 -22 c-8
-8 -18 -15 -22 -15 -3 0 -1 7 6 15 7 8 17 15 22 15 5 0 3 -7 -6 -15z m94 11
c0 -3 -4 -8 -10 -11 -5 -3 -10 -1 -10 4 0 6 5 11 10 11 6 0 10 -2 10 -4z m130
-32 c0 -3 -7 -1 -15 6 -8 7 -15 17 -15 22 0 5 7 3 15 -6 8 -8 15 -18 15 -22z
m-120 2 c0 -3 -4 -8 -10 -11 -5 -3 -10 -1 -10 4 0 6 5 11 10 11 6 0 10 -2 10
-4z m-260 -13 c0 -14 -19 -38 -25 -32 -8 8 5 39 16 39 5 0 9 -3 9 -7z m-2866
-197 c-6 -21 -6 -21 13 2 23 25 38 29 30 7 -4 -8 -1 -17 5 -21 7 -4 8 -3 4 4
-4 7 -2 12 3 12 16 0 13 -16 -4 -34 -8 -8 -12 -21 -9 -29 4 -10 -2 -14 -21
-14 -21 0 -25 3 -19 21 6 19 5 19 -15 -4 l-22 -25 7 24 c5 20 3 23 -10 18 -14
-5 -15 -3 -6 13 13 24 13 30 -1 30 -5 0 -7 -4 -4 -10 3 -5 1 -10 -4 -10 -6 0
-11 4 -11 8 0 15 19 27 45 28 22 2 25 -1 19 -20z m206 14 c0 -5 -5 -10 -11
-10 -5 0 -7 5 -4 10 3 6 8 10 11 10 2 0 4 -4 4 -10z m-450 -10 c0 -5 -5 -10
-11 -10 -5 0 -7 5 -4 10 3 6 8 10 11 10 2 0 4 -4 4 -10z m-1215 -48 c-16 -16
-17 -16 -10 8 7 22 6 23 -9 11 -18 -15 -22 -1 -5 16 9 9 16 8 27 -3 13 -14 13
-17 -3 -32z m1565 38 c0 -5 -5 -10 -11 -10 -5 0 -7 5 -4 10 3 6 8 10 11 10 2
0 4 -4 4 -10z m-1297 -42 c6 -4 4 -12 -6 -22 -20 -20 -34 -21 -17 -1 7 9 10
18 6 22 -3 4 -13 -3 -22 -15 -8 -12 -21 -22 -27 -21 -9 0 -9 2 1 6 6 2 12 9
12 14 0 5 8 18 17 29 13 14 19 17 22 8 2 -7 9 -16 14 -20z m3977 22 c0 -5 -4
-10 -10 -10 -5 0 -10 5 -10 10 0 6 5 10 10 10 6 0 10 -4 10 -10z m-4040 -8 c0
-17 -29 -47 -37 -38 -4 5 -2 11 5 13 6 3 12 11 12 19 0 8 5 14 10 14 6 0 10
-4 10 -8z m1528 -23 c17 -27 0 -24 -27 5 -21 22 -21 24 -4 20 10 -3 24 -14 31
-25z m1426 -68 c-10 -10 -21 -17 -23 -15 -6 6 20 34 32 34 6 0 2 -8 -9 -19z
m60 3 c9 -24 7 -27 -9 -10 -17 17 -19 26 -6 26 5 0 12 -7 15 -16z m-864 -4 c0
-5 -4 -10 -10 -10 -5 0 -10 5 -10 10 0 6 5 10 10 10 6 0 10 -4 10 -10z m830
-14 c0 -17 -27 -46 -41 -46 -5 0 -1 10 11 22 11 12 20 25 20 30 0 4 2 8 5 8 3
0 5 -6 5 -14z m-290 -15 c0 -5 -7 -11 -14 -14 -10 -4 -13 -1 -9 9 6 15 23 19
23 5z m40 -1 c0 -5 -5 -10 -11 -10 -8 0 -8 -4 0 -14 10 -12 9 -13 -8 -9 -17 4
-18 8 -8 24 13 20 27 25 27 9z m200 -44 c0 -3 -4 -8 -10 -11 -5 -3 -10 -1 -10
4 0 6 5 11 10 11 6 0 10 -2 10 -4z m420 -31 c-7 -8 -17 -15 -22 -15 -6 0 -5 7
2 15 7 8 17 15 22 15 6 0 5 -7 -2 -15z m469 1 c9 -10 8 -16 -4 -26 -9 -7 -19
-9 -23 -5 -4 4 -1 10 6 12 10 4 10 8 1 19 -7 8 -7 14 -1 14 5 0 15 -6 21 -14z
m-909 0 c0 -2 -7 -7 -16 -10 -8 -3 -12 -2 -9 4 6 10 25 14 25 6z m390 -11 c-7
-9 -15 -13 -19 -10 -3 3 1 10 9 15 21 14 24 12 10 -5z m160 -1 c0 -8 -4 -12
-10 -9 -5 3 -10 10 -10 16 0 5 5 9 10 9 6 0 10 -7 10 -16z m-112 -34 c-7 -10
-14 -18 -15 -16 -6 6 9 36 18 36 5 0 4 -9 -3 -20z m181 -27 c-8 -10 -18 -21
-23 -25 -6 -4 -4 -13 3 -22 16 -20 5 -21 -14 -2 -10 10 -11 16 -2 25 6 6 8 11
4 11 -14 0 18 29 32 30 11 0 11 -3 0 -17z m-59 -28 c-7 -9 -15 -13 -17 -11 -7
7 7 26 19 26 6 0 6 -6 -2 -15z m51 -55 c9 13 10 13 6 0 -2 -8 -14 -15 -26 -15
-12 0 -26 -7 -31 -15 -5 -8 -10 -11 -10 -6 0 5 8 18 17 28 13 14 18 16 25 6 6
-10 10 -10 19 2z m59 1 c0 -5 -7 -12 -16 -15 -14 -5 -15 -4 -4 9 14 17 20 19
20 6z m40 5 c0 -3 -4 -8 -10 -11 -5 -3 -10 -1 -10 4 0 6 5 11 10 11 6 0 10 -2
10 -4z m-3320 -386 c0 -203 -1 -210 -20 -210 -19 0 -20 7 -20 210 0 203 1 210
20 210 19 0 20 -7 20 -210z m320 0 c0 -203 -1 -210 -20 -210 -12 0 -20 7 -20
16 0 13 -5 12 -26 -5 -50 -39 -140 -19 -162 36 -30 76 -22 141 24 184 36 34
102 34 138 0 l26 -24 0 106 c0 100 1 107 20 107 19 0 20 -7 20 -210z m640 0
c0 -203 -1 -210 -20 -210 -13 0 -20 7 -20 20 0 18 -2 17 -25 -5 -54 -55 -153
-17 -175 67 -35 126 89 228 177 146 l23 -21 0 106 c0 100 1 107 20 107 19 0
20 -7 20 -210z m-1834 27 c21 -64 41 -117 44 -117 3 0 26 62 51 138 42 128 47
137 72 140 31 4 31 3 16 -35 -7 -15 -40 -106 -74 -202 -51 -142 -64 -171 -72
-155 -6 10 -29 76 -52 147 -24 70 -44 127 -46 127 -2 0 -25 -66 -50 -146 -26
-80 -48 -144 -50 -142 -9 8 -145 379 -145 394 0 10 7 14 22 12 19 -3 29 -23
68 -135 25 -72 48 -135 52 -138 3 -3 27 60 53 142 54 170 44 173 111 -30z
m1508 157 c19 -7 21 -35 4 -52 -7 -7 -17 -8 -30 -1 -21 11 -23 30 -6 47 14 14
12 14 32 6z m-1117 -159 c110 -72 59 -245 -72 -245 -104 0 -169 117 -112 201
43 65 122 84 184 44z m316 -1 c37 -28 57 -67 57 -111 0 -50 -18 -82 -60 -111
-29 -19 -44 -23 -84 -19 -41 4 -55 11 -83 41 -28 30 -33 43 -33 83 0 88 61
148 142 139 20 -2 48 -12 61 -22z m715 4 c-2 -18 -10 -23 -32 -23 -49 -1 -66
-34 -66 -131 0 -77 -2 -84 -20 -84 -19 0 -20 7 -20 115 0 63 -1 118 -2 123 -1
4 6 8 15 10 12 2 17 -3 17 -19 l0 -22 23 20 c42 39 90 45 85 11z m662 -3 c16
-14 18 -14 23 0 4 8 16 15 27 15 19 0 20 -6 20 -139 0 -155 -9 -195 -51 -216
-34 -18 -112 -20 -142 -3 -47 25 -66 88 -27 88 11 0 20 -6 20 -13 0 -44 96
-67 130 -30 16 17 35 93 23 93 -2 0 -16 -9 -30 -20 -50 -39 -133 -15 -159 45
-30 74 -6 166 50 191 37 17 91 11 116 -11z m305 9 c37 -17 68 -71 63 -107 -3
-21 -9 -22 -95 -25 -81 -2 -93 -5 -93 -20 0 -56 91 -83 136 -41 29 27 60 19
44 -11 -15 -28 -62 -50 -110 -50 -32 0 -48 7 -76 33 -66 60 -56 171 19 217 39
24 68 25 112 4z m-875 -119 c0 -118 -1 -125 -20 -125 -19 0 -20 7 -20 125 0
118 1 125 20 125 19 0 20 -7 20 -125z m-270 -669 l0 -93 -41 -7 c-52 -8 -79
12 -79 59 0 41 30 70 65 61 24 -6 25 -4 25 34 0 29 4 40 15 40 12 0 15 -17 15
-94z m-822 64 c2 -12 -6 -15 -36 -12 -48 5 -72 -16 -72 -63 0 -47 38 -74 81
-58 26 10 29 9 29 -8 0 -10 -7 -19 -15 -19 -11 0 -14 -7 -9 -24 4 -19 1 -26
-16 -31 -12 -4 -27 -2 -33 4 -8 8 -5 11 13 11 22 0 23 1 5 20 -10 11 -24 20
-31 20 -24 0 -54 51 -54 92 0 57 36 90 93 86 28 -2 43 -8 45 -18z m322 5 c0
-8 -7 -15 -15 -15 -8 0 -15 7 -15 15 0 8 7 15 15 15 8 0 15 -7 15 -15z m150 0
c0 -8 -7 -15 -15 -15 -8 0 -15 7 -15 15 0 8 7 15 15 15 8 0 15 -7 15 -15z
m210 0 c0 -10 -11 -15 -35 -15 -28 0 -35 -4 -35 -20 0 -16 7 -20 35 -20 24 0
35 -5 35 -15 0 -10 -11 -15 -35 -15 -30 0 -35 -3 -35 -24 0 -20 6 -25 32 -28
55 -5 46 -28 -11 -28 l-51 0 0 90 0 90 50 0 c38 0 50 -4 50 -15z m200 0 c0 -8
-6 -15 -14 -15 -17 0 -28 14 -19 24 12 12 33 6 33 -9z m150 -10 c0 -8 -7 -15
-15 -15 -16 0 -20 12 -8 23 11 12 23 8 23 -8z m48 -3 c2 -7 -3 -12 -12 -12 -9
0 -16 7 -16 16 0 17 22 14 28 -4z m190 0 c2 -7 -3 -12 -12 -12 -9 0 -16 7 -16
16 0 17 22 14 28 -4z m42 -3 c0 -5 -7 -9 -15 -9 -15 0 -20 12 -9 23 8 8 24 -1
24 -14z m-355 -21 c10 -21 12 -34 5 -36 -5 -2 -10 -24 -10 -48 0 -32 -4 -44
-15 -44 -11 0 -15 12 -15 44 0 26 -5 46 -12 49 -10 4 -10 7 0 18 6 7 12 21 12
31 0 28 17 21 35 -14z m-824 -29 c29 -29 19 -43 -29 -47 -43 -3 -55 -18 -26
-29 9 -3 25 -1 35 5 13 9 20 9 25 0 8 -13 -23 -38 -48 -38 -26 0 -58 36 -58
65 0 30 32 65 60 65 11 0 29 -9 41 -21z m289 7 c0 -8 -9 -16 -20 -19 -16 -4
-20 -14 -20 -46 0 -30 -4 -41 -15 -41 -11 0 -15 13 -15 53 0 30 2 56 4 58 3 2
18 5 35 6 20 1 31 -2 31 -11z m460 -52 c0 -41 -4 -54 -15 -54 -11 0 -15 13
-15 53 0 30 3 57 6 60 15 15 24 -8 24 -59z m198 50 c46 -32 17 -114 -40 -114
-51 0 -78 85 -36 114 28 20 48 20 76 0z m122 0 c0 -8 -9 -14 -19 -14 -17 0
-20 -8 -23 -47 -4 -68 -22 -59 -26 13 l-3 60 36 1 c24 1 35 -3 35 -13z m50
-41 c0 -40 2 -44 23 -41 18 2 23 11 27 48 6 57 24 58 28 1 5 -68 -50 -108 -92
-65 -22 21 -23 116 -1 108 10 -4 15 -20 15 -51z m-1051 15 l13 -33 14 33 c8
17 21 32 29 32 12 0 9 -12 -12 -55 -15 -30 -30 -55 -33 -55 -3 0 -18 25 -33
55 -24 49 -25 55 -9 55 11 0 23 -13 31 -32z m121 -23 c0 -42 -3 -55 -15 -55
-12 0 -15 13 -15 55 0 42 3 55 15 55 12 0 15 -13 15 -55z m150 0 c0 -42 -3
-55 -15 -55 -12 0 -15 13 -15 55 0 42 3 55 15 55 12 0 15 -13 15 -55z m930 40
c0 -8 -7 -15 -15 -15 -8 0 -15 7 -15 15 0 8 7 15 15 15 8 0 15 -7 15 -15z m-5
-85 c0 -7 -6 -15 -12 -17 -8 -3 -13 4 -13 17 0 13 5 20 13 18 6 -3 12 -11 12
-18z m-945 -197 c0 -44 3 -54 12 -45 7 7 24 12 39 12 35 0 59 -33 59 -81 0
-51 -23 -68 -88 -67 l-52 1 0 112 c0 61 3 115 7 118 16 17 23 3 23 -50z m1098
-67 c2 -108 1 -117 -15 -114 -16 3 -18 17 -21 106 -4 110 0 136 21 130 8 -3
13 -39 15 -122z m-433 102 c14 -6 25 -19 25 -30 0 -19 -15 -24 -25 -8 -3 6
-23 10 -44 10 -50 0 -76 -28 -76 -82 0 -67 56 -94 128 -63 11 5 17 3 17 -7 0
-20 -21 -38 -44 -38 -16 0 -17 -3 -8 -12 7 -7 12 -20 12 -30 0 -14 -8 -18 -36
-18 -21 0 -33 4 -29 10 3 6 15 10 25 10 19 0 19 1 3 20 -10 11 -24 20 -31 20
-8 0 -27 14 -43 31 -24 25 -29 40 -29 79 0 90 77 144 155 108z m-1880 -21 c32
-27 44 -92 25 -138 -16 -38 -61 -59 -125 -59 l-45 0 0 110 0 110 59 0 c48 0
65 -5 86 -23z m706 -6 c24 -25 29 -38 29 -80 0 -77 -28 -104 -114 -109 l-66
-4 0 111 0 111 61 0 c54 0 64 -3 90 -29z m447 17 c-3 -7 -23 -14 -46 -16 -37
-3 -42 -6 -42 -27 0 -21 5 -24 42 -27 57 -4 62 -26 6 -30 -42 -3 -43 -4 -43
-38 0 -34 1 -35 43 -38 28 -2 42 -8 42 -18 0 -11 -14 -14 -60 -14 l-60 0 0
110 0 110 61 0 c44 0 60 -3 57 -12z m1024 -18 c10 0 18 5 18 10 0 6 5 10 10
10 18 0 11 -29 -10 -40 -25 -13 -60 3 -60 27 0 13 3 14 12 5 7 -7 20 -12 30
-12z m-1987 -65 c30 -30 32 -64 4 -99 -42 -54 -129 -23 -129 47 0 70 76 102
125 52z m153 4 c2 -13 -3 -15 -23 -12 -31 6 -55 -12 -55 -42 0 -30 24 -48 55
-43 19 4 25 1 25 -13 0 -13 -7 -19 -22 -19 l-22 0 21 -15 c31 -22 19 -45 -23
-45 -40 0 -46 20 -6 21 15 0 21 3 15 6 -7 2 -13 11 -13 19 0 8 -4 14 -10 14
-22 0 -50 41 -50 73 0 46 32 79 73 75 20 -2 33 -9 35 -19z m463 9 c0 -10 2
-10 6 0 2 6 16 12 30 12 29 0 27 -23 -3 -29 -27 -5 -34 -19 -34 -73 0 -36 -4
-48 -15 -48 -12 0 -15 15 -15 75 0 60 3 75 15 75 8 0 15 -6 16 -12z m639 -4
c0 -7 -9 -14 -20 -14 -24 0 -40 -35 -40 -86 0 -24 -5 -34 -15 -34 -12 0 -15
14 -15 68 0 38 2 71 5 73 2 3 22 5 45 6 29 1 40 -2 40 -13z m52 -41 c3 -57 3
-58 33 -58 29 0 30 2 35 54 7 76 30 81 30 6 0 -77 -11 -95 -60 -95 -55 0 -70
19 -70 91 0 45 3 59 15 59 10 0 15 -15 17 -57z m572 -4 c-2 -92 1 -86 -56 -88
-28 0 -57 4 -64 10 -20 17 -28 74 -13 100 17 34 28 39 84 35 l50 -3 -1 -54z
m171 -32 c0 -82 -2 -90 -25 -109 -27 -22 -74 -19 -99 7 -22 21 -5 31 31 17 34
-12 58 -2 58 24 0 10 -6 11 -23 5 -68 -26 -116 79 -61 133 11 12 31 16 67 14
l52 -3 0 -88z m250 18 c0 -68 -1 -70 -25 -71 -14 -1 -35 -4 -47 -8 -17 -5 -29
-1 -48 18 -27 27 -32 64 -14 99 17 32 28 37 84 34 l50 -2 0 -70z m66 38 c18
-58 20 -59 42 -9 13 31 26 46 38 46 17 0 17 -2 2 -37 -28 -68 -82 -171 -93
-178 -21 -13 -23 5 -6 43 17 38 17 40 -8 102 -14 35 -26 65 -26 67 0 2 9 3 19
3 14 0 23 -11 32 -37z m239 -39 l0 -73 -32 -1 c-18 0 -41 -1 -51 -1 -58 -1
-75 109 -23 143 5 4 32 6 58 6 l48 -1 0 -73z m170 57 c5 -11 10 -45 10 -75 0
-49 -3 -56 -20 -56 -16 0 -19 8 -22 58 -3 53 -5 57 -28 57 -23 0 -25 -4 -28
-57 -3 -50 -6 -58 -22 -58 -18 0 -20 7 -20 73 l0 73 60 2 c49 1 61 -2 70 -17z
m-2545 -112 c0 -7 -8 -15 -17 -17 -18 -3 -25 18 -11 32 10 10 28 1 28 -15z
m471 10 c10 -17 -13 -36 -27 -22 -12 12 -4 33 11 33 5 0 12 -5 16 -11z"/>
<path d="M625 9780 c-3 -5 -1 -10 5 -10 7 0 9 -8 4 -22 -6 -20 -5 -21 9 -10 8
7 13 21 10 32 -6 22 -18 26 -28 10z"/>
<path d="M2245 9681 c-46 -28 -67 -56 -81 -112 -42 -161 104 -298 228 -214
103 70 103 250 0 320 -44 30 -104 33 -147 6z"/>
<path d="M3245 9669 c-91 -80 -98 -204 -16 -291 66 -71 164 -64 219 16 49 71
52 153 9 228 -28 52 -73 78 -130 78 -38 0 -53 -6 -82 -31z"/>
<path d="M4878 9694 c-3 -5 -4 -38 -4 -74 l1 -65 40 2 c24 2 45 10 53 20 18
25 15 77 -6 96 -21 19 -77 33 -84 21z"/>
<path d="M7030 9625 l0 -77 38 7 c49 9 66 27 66 70 0 43 -19 64 -67 72 l-37 6
0 -78z"/>
<path d="M3272 8777 c-16 -17 -22 -36 -22 -68 0 -60 26 -89 81 -89 34 0 42 5
60 33 54 87 -51 197 -119 124z"/>
<path d="M2965 8775 c-55 -54 -22 -155 51 -155 46 0 63 9 79 41 22 41 18 73
-11 108 -33 40 -83 43 -119 6z"/>
<path d="M3603 8799 c-19 -7 -43 -37 -43 -53 0 -3 32 -6 70 -6 70 0 81 7 62
38 -12 18 -64 31 -89 21z"/>
<path d="M4780 8782 c-33 -27 -39 -99 -10 -134 46 -59 140 -22 140 54 0 81
-73 126 -130 80z"/>
<path d="M5498 8790 c-27 -16 -41 -74 -28 -115 13 -40 35 -55 79 -55 44 0 71
33 71 87 0 72 -65 116 -122 83z"/>
<path d="M692 8768 c-16 -16 -15 -28 3 -28 8 0 15 9 15 20 0 23 -2 24 -18 8z"/>
<path d="M2455 7669 c-68 -19 -88 -107 -36 -160 51 -51 129 -32 151 37 24 71
-44 143 -115 123z"/>
<path d="M3755 7672 c-57 -11 -89 -86 -61 -140 44 -85 160 -62 173 34 8 65
-48 118 -112 106z"/>
<path d="M5072 7663 c-19 -7 -42 -58 -42 -93 0 -44 47 -90 92 -90 87 0 126
125 55 175 -21 14 -78 19 -105 8z"/>
<path d="M5665 7645 c-57 -56 -12 -165 68 -165 76 0 117 111 62 165 -18 19
-35 25 -65 25 -30 0 -47 -6 -65 -25z"/>
<path d="M2190 7635 c0 -30 3 -35 24 -35 13 0 29 6 35 14 18 22 -3 56 -34 56
-22 0 -25 -4 -25 -35z"/>
<path d="M2717 7663 c-11 -11 -8 -171 3 -178 6 -4 29 -4 51 0 105 18 95 185
-11 185 -20 0 -40 -3 -43 -7z"/>
<path d="M4007 7663 c-3 -4 -5 -20 -5 -35 0 -22 5 -28 23 -28 31 0 52 27 38
48 -11 18 -48 28 -56 15z"/>
<path d="M6660 7636 c0 -29 4 -36 19 -36 10 0 24 7 32 16 16 20 1 48 -30 52
-18 3 -21 -1 -21 -32z"/>
<path d="M3852 7038 c-7 -7 -12 -24 -12 -38 0 -31 17 -50 45 -50 28 0 45 19
45 50 0 31 -17 50 -45 50 -12 0 -26 -5 -33 -12z"/>
<path d="M3147 7063 l-15 -38 30 -3 c16 -2 32 -2 34 1 5 4 -24 77 -30 77 -2 0
-11 -17 -19 -37z"/>
<path d="M4601 7069 c-16 -46 -14 -49 19 -49 17 0 30 2 30 4 0 8 -31 76 -34
76 -2 0 -9 -14 -15 -31z"/>
<path d="M3668 7025 c-17 -39 3 -75 42 -75 23 0 33 6 42 25 17 39 -3 75 -42
75 -23 0 -33 -6 -42 -25z"/>
<path d="M4037 7048 c-29 -16 -19 -28 24 -28 26 0 39 4 37 12 -6 17 -42 27
-61 16z"/>
<path d="M4768 7025 c-22 -49 15 -88 66 -69 16 6 21 48 10 78 -10 27 -62 20
-76 -9z"/>
<path d="M4948 7025 c-22 -49 15 -88 66 -69 19 7 22 64 4 82 -21 21 -57 14
-70 -13z"/>
<path d="M5234 7029 c-17 -19 -17 -23 -3 -47 27 -49 89 -37 89 17 0 51 -51 69
-86 30z"/>
<path d="M5412 7038 c-27 -27 -5 -88 31 -88 30 0 47 18 47 50 0 31 -17 50 -45
50 -12 0 -26 -5 -33 -12z"/>
<path d="M4662 6588 c-17 -17 -15 -54 3 -72 23 -22 59 -6 63 28 6 46 -36 74
-66 44z"/>
<path d="M3786 6581 c-33 -36 5 -88 52 -70 16 6 22 16 22 37 0 51 -41 69 -74
33z"/>
<path d="M5042 6588 c-36 -36 4 -101 48 -78 37 20 21 90 -20 90 -9 0 -21 -5
-28 -12z"/>
<path d="M1217 6129 c7 -7 15 -10 18 -7 3 3 -2 9 -12 12 -14 6 -15 5 -6 -5z"/>
<path d="M1492 6105 c-7 -8 -9 -15 -4 -15 5 0 15 7 22 15 16 19 -1 19 -18 0z"/>
<path d="M1271 6004 c13 -16 29 -19 29 -5 0 5 -9 11 -21 14 -16 4 -18 3 -8 -9z"/>
<path d="M1720 5058 c0 -9 -6 -19 -12 -21 -7 -3 -8 -6 -3 -6 6 0 17 4 25 9 12
7 12 12 2 22 -9 9 -12 9 -12 -4z"/>
<path d="M1680 5010 c0 -5 5 -10 10 -10 6 0 10 5 10 10 0 6 -4 10 -10 10 -5 0
-10 -4 -10 -10z"/>
<path d="M1801 4564 c-18 -21 -6 -30 14 -11 8 9 15 18 15 21 0 11 -15 5 -29
-10z"/>
<path d="M2500 3860 c0 -5 5 -10 10 -10 6 0 10 5 10 10 0 6 -4 10 -10 10 -5 0
-10 -4 -10 -10z"/>
<path d="M3980 2335 c-7 -9 -11 -18 -8 -20 3 -3 11 1 18 10 7 9 11 18 8 20 -3
3 -11 -1 -18 -10z"/>
<path d="M4406 1344 c-39 -38 -30 -128 15 -153 85 -48 160 78 89 149 -24 24
-82 27 -104 4z"/>
<path d="M5041 1334 c-25 -31 -27 -74 -6 -114 17 -33 43 -44 85 -35 58 13 78
108 34 156 -27 30 -87 25 -113 -7z"/>
<path d="M3683 1362 c-32 -5 -63 -49 -63 -89 0 -43 46 -93 85 -93 39 0 85 50
85 93 0 60 -46 98 -107 89z"/>
<path d="M3984 1356 c-59 -26 -69 -115 -17 -156 88 -69 192 62 110 138 -31 28
-57 33 -93 18z"/>
<path d="M5355 1340 c-27 -29 -25 -105 3 -133 27 -27 83 -28 112 -2 28 25 28
107 0 135 -27 27 -90 27 -115 0z"/>
<path d="M5676 1349 c-46 -36 -35 -49 44 -49 63 0 70 2 70 19 0 24 -36 51 -66
51 -12 0 -33 -9 -48 -21z"/>
<path d="M4547 593 c-13 -12 -7 -54 9 -60 23 -8 47 20 39 46 -6 20 -34 28 -48
14z"/>
<path d="M3875 590 c-4 -6 5 -10 19 -10 14 0 26 5 26 10 0 6 -9 10 -19 10 -11
0 -23 -4 -26 -10z"/>
<path d="M4824 586 c-11 -29 0 -51 26 -51 21 0 25 5 25 30 0 24 -5 31 -23 33
-13 2 -24 -3 -28 -12z"/>
<path d="M4272 248 c-29 -29 -7 -78 35 -78 26 0 42 43 26 69 -13 20 -45 25
-61 9z"/>
<path d="M2940 250 c0 -74 2 -80 21 -80 23 0 60 18 71 34 4 6 8 30 8 53 0 48
-25 73 -72 73 l-28 0 0 -80z"/>
<path d="M3640 249 l0 -82 37 6 c49 8 65 27 67 77 1 49 -28 80 -75 80 l-29 0
0 -81z"/>
<path d="M3152 248 c-7 -7 -12 -22 -12 -34 0 -51 72 -61 78 -11 6 47 -36 75
-66 45z"/>
<path d="M5014 236 c-10 -41 -1 -61 28 -64 23 -3 29 2 34 24 8 33 -6 58 -34
62 -16 2 -23 -3 -28 -22z"/>
<path d="M5191 246 c-7 -8 -11 -27 -9 -43 3 -24 8 -28 33 -28 25 0 30 4 33 28
4 30 -12 57 -33 57 -7 0 -18 -6 -24 -14z"/>
<path d="M5434 236 c-10 -41 -1 -61 28 -64 23 -3 29 2 34 24 8 33 -6 58 -34
62 -16 2 -23 -3 -28 -22z"/>
<path d="M5752 248 c-18 -18 -15 -68 4 -75 37 -14 70 41 44 73 -15 17 -32 18
-48 2z"/>
<path d="M9840 5160 l0 -5160 4200 0 4200 0 0 5160 0 5160 -4200 0 -4200 0 0
-5160z m1890 3955 l0 -235 -25 0 c-19 0 -25 5 -25 21 0 20 -1 20 -31 -5 -59
-50 -146 -27 -180 47 -45 101 -5 209 84 224 47 7 82 -2 107 -29 l20 -22 0 117
0 117 25 0 25 0 0 -235z m3200 0 l0 -235 -25 0 c-19 0 -25 5 -25 21 0 19 -1
19 -33 -5 -46 -35 -104 -35 -145 -1 -42 35 -55 74 -50 146 4 56 8 65 41 95 30
28 45 34 81 34 28 0 52 -7 69 -20 14 -11 28 -20 31 -20 3 0 4 50 3 110 l-2
110 28 0 27 0 0 -235z m1212 198 c25 -14 34 -27 36 -51 4 -38 0 -39 -37 -11
-89 66 -217 34 -262 -65 -61 -135 44 -284 184 -262 23 4 56 18 73 31 18 14 35
25 38 25 3 0 6 -15 6 -34 0 -31 -4 -35 -49 -55 -27 -11 -62 -21 -76 -21 -15 0
-24 -4 -20 -10 3 -5 15 -10 25 -10 47 0 67 -67 28 -94 -38 -27 -138 -18 -138
11 0 12 9 15 44 11 24 -3 50 -2 57 2 18 11 3 40 -21 40 -14 0 -20 7 -20 23 0
18 -10 26 -48 40 -64 22 -96 48 -129 104 -22 37 -27 59 -27 112 -1 110 52 190
151 227 49 18 143 12 185 -13z m-5340 -16 c66 -39 93 -93 93 -192 0 -100 -26
-153 -95 -193 -40 -24 -58 -27 -152 -31 l-108 -3 0 227 0 228 110 -5 c93 -5
115 -9 152 -31z m2589 -5 c24 -26 29 -41 29 -82 0 -41 -5 -54 -27 -75 -21 -19
-24 -25 -11 -25 30 0 58 -48 58 -99 0 -98 -53 -135 -188 -129 l-73 3 0 218 c0
119 1 220 1 223 0 4 41 4 91 2 88 -4 93 -6 120 -36z m3448 21 c12 -23 -4 -53
-29 -53 -25 0 -41 29 -29 52 12 23 45 23 58 1z m317 -7 c8 -32 -2 -46 -31 -46
-28 0 -43 34 -25 55 19 23 49 18 56 -9z m-6101 -51 c0 -25 -4 -30 -24 -30 -32
0 -49 28 -31 50 7 9 23 15 34 13 16 -2 21 -10 21 -33z m105 20 c18 -22 8 -50
-19 -50 -32 0 -49 28 -32 49 17 20 35 20 51 1z m730 0 c20 -24 3 -57 -28 -53
-30 3 -41 30 -22 53 16 19 34 19 50 0z m111 -1 c17 -21 0 -49 -32 -49 -27 0
-37 28 -19 50 16 19 34 19 51 -1z m769 1 c18 -22 8 -50 -19 -50 -32 0 -49 28
-32 49 17 20 35 20 51 1z m110 0 c18 -22 8 -50 -19 -50 -32 0 -49 28 -32 49
17 20 35 20 51 1z m-1722 -125 c129 -79 72 -280 -80 -280 -114 0 -186 144
-120 238 43 60 137 80 200 42z m286 12 c10 -16 -14 -37 -45 -38 -54 -3 -64
-22 -67 -139 -4 -103 -4 -105 -28 -105 l-24 0 0 140 c0 133 1 140 20 140 14 0
20 -7 20 -21 0 -20 1 -20 31 5 29 25 82 35 93 18z m887 -21 c29 -29 29 -31 29
-145 l0 -116 -25 0 -25 0 0 100 c0 95 -2 102 -26 127 -20 20 -31 24 -57 19
-56 -11 -67 -35 -67 -147 0 -99 0 -99 -25 -99 l-25 0 0 140 0 140 25 0 c16 0
25 -6 25 -16 0 -13 5 -12 26 5 41 33 108 29 145 -8z m283 19 c19 -7 26 -17 26
-36 0 -21 -3 -25 -17 -18 -10 4 -37 9 -60 12 -37 3 -47 0 -73 -26 -43 -43 -42
-101 0 -144 27 -27 36 -30 73 -25 23 2 50 8 60 12 14 6 17 2 17 -19 0 -31 -30
-46 -91 -46 -86 0 -139 57 -139 148 0 64 20 106 63 132 35 22 100 26 141 10z
m1046 -5 c15 -8 30 -20 33 -27 3 -7 6 -3 6 10 1 17 7 22 26 22 l25 0 0 -140 0
-140 -25 0 c-19 0 -25 5 -26 23 0 12 -3 16 -6 9 -7 -19 -58 -42 -93 -42 -46 0
-88 29 -110 75 -64 132 49 272 170 210z m300 0 c34 -18 42 -36 21 -51 -12 -9
-21 -8 -40 7 -29 23 -64 24 -82 3 -19 -23 -1 -46 51 -65 94 -35 117 -93 61
-150 -40 -40 -105 -41 -151 -3 -29 25 -30 28 -15 43 12 13 19 13 33 3 35 -25
62 -32 88 -22 42 16 28 50 -33 80 -68 33 -93 57 -93 90 0 66 88 102 160 65z
m417 -9 l28 -24 28 24 c42 35 100 33 138 -5 29 -29 29 -31 29 -145 l0 -116
-25 0 -25 0 0 103 c0 115 -7 133 -57 143 -26 5 -37 1 -57 -19 -24 -25 -26 -32
-26 -127 l0 -100 -25 0 -25 0 0 103 c0 114 -7 133 -55 143 -22 4 -38 0 -58
-16 -26 -21 -27 -24 -27 -126 l0 -104 -25 0 -25 0 0 140 0 140 25 0 c16 0 25
-6 25 -16 0 -13 5 -12 26 5 37 29 95 28 131 -3z m803 -1 c18 -16 20 -16 20 -2
0 11 8 17 25 17 l25 0 0 -140 0 -140 -25 0 c-15 0 -25 6 -25 15 0 12 -6 11
-32 -5 -71 -43 -153 -14 -183 64 -30 79 -6 168 54 202 34 19 115 13 141 -11z
m361 -4 c29 -29 29 -31 29 -145 l0 -116 -25 0 -25 0 0 100 c0 95 -2 102 -26
127 -20 20 -31 24 -57 19 -56 -11 -67 -35 -67 -147 0 -99 0 -99 -25 -99 l-25
0 0 140 0 140 25 0 c16 0 25 -6 25 -16 0 -13 5 -12 26 5 41 33 108 29 145 -8z
m879 14 c34 -18 57 -56 62 -105 l3 -35 -107 -3 c-101 -2 -108 -4 -108 -23 0
-27 53 -79 80 -79 28 0 61 17 82 44 16 20 18 20 35 3 17 -16 16 -19 -14 -48
-60 -60 -169 -48 -213 23 -63 105 -4 238 106 238 25 0 58 -7 74 -15z m648 -7
c-2 -18 -10 -23 -38 -25 -57 -3 -70 -28 -70 -144 0 -99 0 -99 -25 -99 l-25 0
0 140 c0 133 1 140 20 140 14 0 20 -7 20 -21 0 -20 1 -20 31 5 18 15 43 26 60
26 26 0 30 -3 27 -22z m-5226 -87 c4 -118 18 -141 79 -141 58 0 69 24 69 142
l0 98 28 0 27 0 -5 -112 c-3 -62 -10 -121 -14 -131 -21 -44 -119 -62 -177 -31
-44 22 -59 67 -59 179 0 93 0 95 24 95 23 0 24 -2 28 -99z m888 1 c0 -118 11
-142 69 -142 61 0 75 23 79 141 4 97 5 99 28 99 24 0 24 -2 24 -95 0 -112 -15
-157 -59 -179 -41 -22 -109 -20 -148 4 -40 24 -53 67 -53 183 l0 87 30 0 30 0
0 -98z m1370 -42 l0 -140 -25 0 -25 0 0 140 0 140 25 0 25 0 0 -140z m2480 48
c19 -48 37 -88 40 -88 3 0 22 41 44 90 35 83 40 90 66 90 l28 0 -67 -145 c-36
-80 -68 -145 -71 -145 -4 0 -111 234 -129 282 -2 5 10 8 25 6 26 -3 32 -12 64
-90z m258 -45 l-3 -138 -25 0 -25 0 -3 138 -3 137 31 0 31 0 -3 -137z m312 -3
l0 -140 -25 0 -25 0 0 140 0 140 25 0 25 0 0 -140z m-6334 -7518 c7 -4 21 -51
32 -105 18 -89 18 -98 3 -106 -25 -13 -122 -43 -126 -40 -1 2 -12 49 -23 105
-11 55 -24 112 -27 127 l-7 27 68 0 c38 0 74 -4 80 -8z m599 -75 c29 -22 11
-37 -31 -26 -28 8 -41 7 -60 -6 -45 -29 -26 -70 54 -115 86 -49 82 -146 -7
-170 -29 -7 -49 -7 -77 2 -41 14 -56 46 -19 40 80 -14 91 -13 109 7 28 31 14
64 -40 96 -64 38 -84 60 -84 96 0 39 16 68 43 79 33 13 91 12 112 -3z m312
-13 c45 -34 64 -68 69 -125 10 -104 -56 -181 -155 -181 -58 0 -102 21 -133 64
-32 45 -33 153 -2 195 40 54 83 75 142 71 31 -3 64 -13 79 -24z m163 -99 c0
-120 1 -127 25 -150 16 -17 35 -25 58 -25 69 0 84 35 85 196 0 89 2 99 19 99
17 0 18 -10 16 -128 -1 -136 -9 -164 -55 -188 -32 -17 -97 -15 -134 4 -44 23
-54 60 -54 198 0 112 1 119 20 119 19 0 20 -7 20 -125z m483 105 c-4 -16 -14
-20 -49 -20 l-44 0 0 -146 c0 -145 0 -145 -22 -142 -22 3 -23 6 -26 146 l-3
142 -39 0 c-39 0 -56 11 -45 30 4 6 55 10 120 10 108 0 113 -1 108 -20z m89
-52 l3 -73 85 0 85 0 3 73 c2 63 5 73 20 70 15 -3 17 -22 20 -166 2 -157 2
-162 -18 -162 -18 0 -20 6 -20 75 l0 75 -90 0 -90 0 0 -75 c0 -68 -2 -75 -20
-75 -19 0 -20 7 -20 165 0 157 1 165 20 165 17 0 19 -8 22 -72z m524 -63 c24
-75 44 -124 48 -115 3 8 19 55 35 103 23 68 28 94 21 113 -14 35 -13 36 12 32
19 -3 28 -22 64 -133 l42 -130 41 133 c35 110 45 132 61 132 11 0 20 -3 20 -7
0 -5 -24 -78 -54 -163 -66 -193 -75 -197 -120 -63 -17 50 -34 94 -37 97 -3 3
-21 -38 -40 -92 -49 -140 -59 -136 -121 48 -26 80 -51 153 -54 163 -5 15 -1
18 17 15 20 -3 29 -20 65 -133z m554 127 c0 -20 -28 -32 -72 -32 l-48 0 0 -55
0 -55 56 0 c73 0 70 -24 -4 -28 l-52 -3 0 -60 0 -59 60 0 c47 0 60 -3 60 -15
0 -12 -16 -15 -80 -15 l-80 0 0 165 0 165 80 0 c44 0 80 -4 80 -8z m208 2 c12
-4 22 -14 22 -24 0 -16 -4 -17 -32 -10 -40 12 -76 3 -89 -22 -14 -27 10 -62
60 -88 44 -22 81 -64 81 -91 0 -30 -21 -66 -45 -79 -26 -14 -88 -17 -123 -6
-25 8 -26 44 -1 37 8 -2 33 -6 55 -8 37 -5 44 -2 59 21 16 24 16 28 1 51 -9
14 -34 34 -55 45 -47 24 -81 64 -81 97 0 14 13 37 29 54 30 29 67 37 119 23z
m300 -11 c-2 -14 -15 -19 -51 -21 l-47 -3 0 -145 c0 -137 -1 -144 -20 -144
-19 0 -20 7 -20 144 l0 145 -42 3 c-31 2 -44 8 -46 21 -3 15 7 17 113 17 106
0 116 -2 113 -17z m212 9 c0 -20 -28 -32 -72 -32 l-48 0 0 -55 0 -55 56 0 c73
0 70 -24 -4 -28 l-52 -3 0 -60 0 -59 60 0 c47 0 60 -3 60 -15 0 -12 -16 -15
-80 -15 l-80 0 0 165 0 165 80 0 c44 0 80 -4 80 -8z m226 -26 c35 -40 32 -90
-6 -126 -17 -16 -26 -31 -22 -34 9 -5 82 -123 82 -132 0 -2 -9 -4 -20 -4 -13
0 -34 23 -65 71 -60 92 -79 92 -83 -4 -3 -59 -5 -67 -22 -67 -19 0 -20 8 -20
166 l0 166 66 -4 c58 -4 70 -8 90 -32z m247 -97 l97 -130 0 131 c0 123 1 130
20 130 19 0 20 -7 20 -165 0 -152 -1 -165 -18 -165 -11 0 -53 47 -112 127
l-95 127 -3 -127 c-2 -119 -4 -127 -22 -127 -19 0 -20 8 -20 165 0 151 2 165
18 165 10 0 55 -51 115 -131z m2568 91 c51 -14 115 -73 134 -123 14 -36 16
-81 13 -298 l-3 -256 -27 -41 c-15 -22 -49 -54 -75 -69 l-48 -28 -425 -3
c-466 -4 -503 -1 -563 49 -75 62 -81 86 -85 331 -4 260 4 312 56 371 71 78 61
77 552 77 257 0 450 -4 471 -10z m-6774 -41 l61 -20 -10 -42 c-5 -23 -11 -43
-13 -45 -5 -5 -137 38 -148 48 -8 7 30 80 42 80 4 0 34 -9 68 -21z m2341 -86
c-3 -15 -14 -18 -63 -18 -49 0 -60 3 -63 18 -3 15 5 17 63 17 58 0 66 -2 63
-17z m-1848 -58 c17 -30 28 -60 25 -66 -8 -12 -80 -80 -117 -108 l-24 -20 -47
41 c-26 22 -47 43 -47 48 0 8 166 160 174 160 3 0 19 -25 36 -55z m-569 -71
l34 -36 -65 -58 c-71 -64 -71 -64 -106 2 -13 26 -12 28 39 77 28 28 54 51 58
51 3 0 21 -16 40 -36z m943 -150 c34 -13 16 -29 -28 -26 -38 3 -46 0 -66 -25
-17 -22 -21 -37 -17 -66 8 -58 33 -80 84 -74 51 5 61 -17 13 -28 -86 -19 -150
61 -120 150 18 55 83 88 134 69z m194 -6 c-3 -7 -19 -14 -36 -16 -29 -3 -32
-6 -32 -38 0 -32 2 -34 35 -34 19 0 35 -4 35 -10 0 -5 -16 -10 -35 -10 -34 0
-35 -1 -35 -40 l0 -40 40 0 c22 0 40 -4 40 -10 0 -5 -25 -10 -55 -10 l-55 0 0
110 0 110 51 0 c36 0 49 -4 47 -12z m175 -73 l62 -85 3 86 c2 61 6 84 15 81 8
-2 13 -38 15 -110 3 -135 -4 -137 -90 -24 l-63 82 -3 -83 c-2 -60 -6 -82 -15
-79 -8 2 -12 35 -12 103 -1 54 1 102 3 107 8 18 27 1 85 -78z m311 79 c32 -12
15 -24 -34 -24 -66 0 -90 -23 -90 -85 0 -59 25 -85 80 -85 39 0 40 1 40 35 0
32 -2 35 -30 35 -16 0 -30 5 -30 10 0 6 20 10 45 10 l45 0 0 -50 c0 -58 -8
-64 -78 -65 -37 0 -48 5 -73 33 -51 57 -32 155 35 182 25 10 68 12 90 4z m182
-41 c9 -27 28 -75 41 -107 27 -70 27 -66 10 -66 -8 0 -19 11 -25 25 -10 21
-18 25 -56 25 -38 0 -45 -3 -50 -25 -4 -14 -14 -25 -22 -25 -11 0 -14 5 -9 18
7 15 59 158 70 190 9 24 24 11 41 -35z m258 41 c35 -14 15 -29 -33 -26 -43 3
-51 1 -70 -23 -27 -35 -27 -85 0 -119 16 -20 29 -26 60 -26 38 0 39 1 39 35 0
31 -3 35 -25 35 -14 0 -25 5 -25 10 0 6 18 10 40 10 l40 0 0 -50 c0 -46 -3
-51 -27 -61 -39 -15 -93 -4 -121 24 -27 28 -39 89 -23 129 19 49 95 81 145 62z
m196 -9 c0 -10 -11 -15 -35 -15 -33 0 -35 -2 -35 -35 0 -33 2 -35 35 -35 19 0
35 -4 35 -10 0 -5 -16 -10 -35 -10 -34 0 -35 -1 -35 -40 l0 -40 41 0 c25 0 39
-4 37 -11 -2 -6 -7 -10 -11 -10 -4 1 -27 1 -52 1 l-45 0 0 110 0 110 50 0 c38
0 50 -4 50 -15z m180 -85 l0 -100 41 0 c25 0 39 -4 37 -11 -2 -6 -7 -10 -11
-10 -4 1 -27 1 -52 1 l-45 0 0 103 c0 57 3 107 7 110 18 19 23 -1 23 -93z
m770 91 c0 -14 -18 -23 -30 -16 -6 4 -8 11 -5 16 8 12 35 12 35 0z m-3080 -78
c7 -32 15 -75 20 -95 l8 -38 -58 0 -59 0 -11 54 c-20 99 -19 107 20 122 62 22
67 20 80 -43z m257 26 c48 -17 90 -33 92 -35 5 -4 -47 -91 -59 -99 -13 -8
-170 43 -170 55 0 31 26 110 36 110 7 0 52 -14 101 -31z m3177 2 c3 -5 -1 -12
-9 -15 -13 -5 -14 -10 -5 -27 15 -28 -11 -68 -50 -76 -42 -8 -37 -17 18 -34
55 -16 68 -47 30 -73 -56 -40 -166 10 -115 52 13 11 14 71 2 109 -10 31 28 66
66 61 17 -3 32 -1 35 4 7 11 21 10 28 -1z m-921 -18 c8 -10 19 -30 22 -45 7
-28 7 -28 -44 -28 -35 0 -51 -4 -51 -13 0 -22 23 -37 57 -37 35 0 44 -14 17
-24 -53 -20 -104 20 -104 84 0 67 63 106 103 63z m158 7 c16 -9 19 -22 19 -87
0 -55 -3 -74 -11 -66 -8 8 -19 8 -39 0 -24 -9 -32 -8 -49 8 -42 37 -18 85 43
85 32 0 40 14 21 34 -11 10 -26 13 -45 9 -18 -3 -30 -1 -30 5 0 20 61 28 91
12z m99 0 c0 -7 6 -7 19 0 25 13 41 13 41 0 0 -6 -11 -15 -25 -20 -23 -9 -25
-15 -25 -70 0 -47 -3 -60 -15 -60 -12 0 -15 16 -15 80 0 47 4 80 10 80 6 0 10
-5 10 -10z m151 3 c49 19 63 2 67 -78 2 -38 -2 -73 -8 -79 -7 -7 -10 7 -10 46
0 71 -7 88 -34 88 -34 0 -46 -20 -46 -77 0 -75 -18 -66 -22 11 -4 77 0 102 14
88 6 -6 20 -6 39 1z m149 -79 c0 -54 -4 -83 -10 -79 -5 3 -10 42 -10 86 0 46
4 79 10 79 6 0 10 -35 10 -86z m83 74 c4 -10 7 -10 18 0 20 19 56 14 73 -10
21 -30 22 -138 1 -138 -10 0 -15 16 -17 63 -3 62 -3 62 -33 62 -30 0 -30 0
-33 -62 -2 -47 -7 -63 -17 -63 -12 0 -15 17 -15 80 0 72 10 102 23 68z m367 3
c0 -16 -28 -20 -34 -5 -4 9 1 14 14 14 11 0 20 -4 20 -9z"/>
<path d="M11538 9110 c-23 -14 -41 -74 -33 -110 11 -49 42 -80 80 -80 18 0 41
3 50 6 23 9 45 57 45 99 0 69 -83 119 -142 85z"/>
<path d="M14725 9095 c-29 -28 -34 -89 -10 -134 16 -31 33 -41 74 -41 61 0
103 69 81 135 -22 67 -98 88 -145 40z"/>
<path d="M10595 9268 c-3 -8 -4 -86 -3 -173 l3 -160 73 3 c92 3 128 21 153 75
38 84 13 209 -48 240 -42 22 -171 33 -178 15z"/>
<path d="M13230 9205 c0 -72 1 -75 24 -75 83 0 123 34 112 93 -7 40 -37 57
-96 57 l-40 0 0 -75z"/>
<path d="M13230 9010 l0 -80 55 0 c68 0 95 22 95 78 0 20 -4 42 -8 49 -11 18
-58 33 -103 33 l-39 0 0 -80z"/>
<path d="M11027 9109 c-26 -15 -49 -74 -41 -107 4 -15 18 -39 32 -54 50 -54
139 -27 158 46 16 64 -31 126 -93 126 -21 0 -46 -5 -56 -11z"/>
<path d="M13555 9095 c-20 -19 -25 -34 -25 -75 0 -41 5 -56 25 -75 56 -57 145
-16 145 65 0 70 -31 109 -88 110 -22 0 -41 -8 -57 -25z"/>
<path d="M15058 9100 c-29 -22 -39 -69 -26 -117 27 -100 168 -77 168 27 0 46
-21 94 -45 104 -31 12 -72 6 -97 -14z"/>
<path d="M16315 9118 c-22 -12 -45 -37 -45 -50 0 -4 36 -8 80 -8 87 0 95 6 55
45 -26 27 -58 31 -90 13z"/>
<path d="M11603 1399 c-93 -26 -109 -192 -24 -242 100 -59 203 39 169 160 -20
69 -76 101 -145 82z"/>
<path d="M14370 1340 c0 -59 0 -60 28 -60 41 0 72 26 72 60 0 38 -24 60 -66
60 l-34 0 0 -60z"/>
<path d="M16329 1356 c-39 -27 -73 -72 -64 -85 3 -5 -1 -11 -7 -13 -10 -4 -14
-62 -16 -240 -3 -230 -3 -235 17 -241 35 -9 98 11 209 67 238 120 350 126 454
22 18 -17 29 -26 25 -20 -10 18 34 77 73 97 47 24 116 18 245 -21 55 -17 114
-32 130 -34 l30 -3 0 191 c0 184 -1 192 -24 225 -13 19 -35 43 -50 54 -25 19
-44 20 -506 22 l-480 3 -36 -24z m565 -34 c3 -5 -3 -37 -14 -71 -14 -46 -15
-59 -5 -51 24 20 78 8 92 -21 36 -75 -68 -197 -149 -175 -55 14 -55 16 -19
138 18 62 35 121 38 131 4 11 0 17 -11 17 -31 0 -17 29 17 33 17 2 35 5 39 5
4 1 9 -2 12 -6z m420 0 c2 -4 -13 -66 -34 -137 -43 -141 -46 -159 -26 -132 15
20 26 22 26 5 0 -19 -42 -58 -62 -58 -37 0 -33 30 38 273 4 11 0 17 -10 17
-31 0 -16 29 17 33 17 2 35 5 39 5 4 1 9 -2 12 -6z m-890 -134 l-6 -21 27 21
c15 12 38 22 51 22 21 0 24 -5 24 -34 0 -18 -7 -53 -15 -76 -19 -54 -19 -65 1
-45 9 9 19 14 22 11 9 -9 -27 -54 -49 -61 -37 -12 -42 8 -20 86 11 40 18 75
15 78 -11 11 -73 -71 -87 -113 -11 -32 -19 -42 -39 -44 l-26 -3 24 82 c28 98
27 89 9 89 -8 0 -15 4 -15 9 0 11 23 18 63 20 25 1 27 -2 21 -21z m308 5 c53
-48 -10 -176 -93 -189 -75 -12 -116 70 -70 140 40 61 123 86 163 49z m438 2
c28 -34 -20 -83 -97 -100 -34 -7 -42 -22 -21 -43 17 -17 49 -15 76 4 27 19 41
12 22 -11 -19 -22 -65 -45 -91 -45 -33 0 -69 38 -69 72 0 67 66 138 130 138
21 0 43 -6 50 -15z"/>
<path d="M16873 1165 c-19 -13 -53 -96 -53 -127 0 -11 38 -10 61 2 40 22 72
141 33 126 -8 -3 -12 -2 -9 4 9 15 -8 12 -32 -5z"/>
<path d="M16636 1160 c-43 -52 -48 -130 -7 -130 42 0 97 113 71 145 -19 22
-35 18 -64 -15z"/>
<path d="M17094 1178 c-21 -10 -49 -56 -40 -65 6 -6 60 23 75 41 7 8 10 20 6
26 -7 12 -13 12 -41 -2z"/>
<path d="M17035 912 c-34 -16 -64 -53 -81 -100 0 -1 -18 14 -38 33 -60 57 -89
68 -170 63 -65 -3 -84 -9 -221 -78 -141 -71 -154 -75 -217 -75 l-66 0 14 -35
c20 -46 49 -76 99 -100 39 -19 61 -20 485 -20 427 0 445 1 486 21 72 34 114
108 114 200 l0 49 -43 0 c-23 0 -82 11 -131 24 -131 36 -183 40 -231 18z"/>
<path d="M12216 916 c-3 -13 -9 -31 -12 -40 -5 -13 1 -16 26 -16 27 0 31 3 25
18 -4 9 -10 27 -12 40 -7 29 -19 28 -27 -2z"/>
<path d="M13032 908 c-23 -23 -13 -38 23 -38 38 0 44 10 19 34 -19 19 -26 20
-42 4z"/>
<path d="M13184 835 c-8 -20 4 -35 26 -35 19 0 33 14 36 38 3 17 -55 15 -62
-3z"/>
<path d="M141 10207 c-13 -21 -12 -21 5 -5 10 10 16 20 13 22 -3 3 -11 -5 -18
-17z"/>
<path d="M8045 10141 c-8 -17 -12 -31 -7 -31 10 0 35 50 28 57 -2 3 -12 -9
-21 -26z"/>
<path d="M8140 10160 c-8 -5 -11 -12 -7 -17 5 -4 12 -1 18 7 8 13 10 13 20 0
9 -12 10 -12 7 -1 -5 19 -19 23 -38 11z"/>
<path d="M8080 10135 c-7 -9 -11 -18 -8 -20 3 -3 11 1 18 10 7 9 11 18 8 20
-3 3 -11 -1 -18 -10z"/>
<path d="M8000 10080 c-8 -5 -12 -12 -9 -15 4 -3 12 1 19 10 14 17 11 19 -10
5z"/>
<path d="M525 9990 c-3 -5 -1 -10 4 -10 6 0 11 5 11 10 0 6 -2 10 -4 10 -3 0
-8 -4 -11 -10z"/>
<path d="M32 9703 c-7 -2 -17 -13 -22 -23 -8 -15 -5 -24 12 -41 22 -20 22 -21
2 -15 -18 5 -21 2 -21 -24 0 -22 3 -27 13 -19 8 7 14 7 19 -1 3 -5 1 -10 -5
-10 -6 0 -9 -4 -5 -10 3 -5 13 -6 22 -3 11 4 14 3 9 -5 -5 -8 -2 -10 9 -6 9 4
14 13 11 20 -3 8 0 11 10 7 8 -3 13 -12 9 -21 -4 -12 0 -11 21 3 25 16 27 16
21 1 -6 -16 -5 -16 15 -1 13 8 32 15 45 15 12 0 25 5 28 10 3 6 -1 10 -11 10
-21 0 -66 47 -53 56 6 4 6 11 -1 19 -7 8 -8 20 -4 27 6 11 5 11 -8 0 -11 -9
-18 -10 -23 -2 -3 5 -17 7 -30 4 -12 -3 -26 -1 -29 5 -8 12 -14 12 -34 4z"/>
<path d="M300 9691 c-14 -9 -21 -11 -16 -3 10 17 3 15 -22 -7 -24 -20 -29 -33
-9 -26 8 4 12 -6 13 -27 1 -18 -1 -27 -3 -20 -8 21 -21 13 -19 -12 0 -14 6
-22 14 -19 6 3 12 0 12 -6 0 -6 7 -11 15 -11 8 0 15 -4 15 -9 0 -5 7 -11 14
-14 11 -4 13 -1 9 11 -5 14 -3 15 8 5 16 -15 33 -17 24 -3 -8 13 1 13 26 0 21
-12 26 -1 7 19 -11 10 -9 11 7 5 11 -4 27 -12 35 -18 13 -10 13 -9 0 9 -8 11
-19 24 -25 28 -5 5 0 5 13 2 25 -7 29 6 7 25 -11 9 -12 15 -2 25 7 7 15 11 19
8 4 -2 5 3 2 12 -4 10 -14 15 -25 12 -13 -3 -16 0 -12 11 5 11 2 14 -10 9 -9
-3 -29 -2 -44 2 -20 6 -35 4 -53 -8z"/>
<path d="M375 9270 c3 -5 8 -10 11 -10 2 0 4 5 4 10 0 6 -5 10 -11 10 -5 0 -7
-4 -4 -10z"/>
<path d="M375 9240 c-3 -5 -1 -10 4 -10 6 0 11 5 11 10 0 6 -2 10 -4 10 -3 0
-8 -4 -11 -10z"/>
<path d="M8795 8650 c3 -5 8 -10 11 -10 2 0 4 5 4 10 0 6 -5 10 -11 10 -5 0
-7 -4 -4 -10z"/>
<path d="M7230 5971 c0 -5 7 -12 16 -15 24 -9 27 -7 10 9 -17 17 -26 19 -26 6z"/>
<path d="M5435 5950 c-3 -5 -1 -10 4 -10 6 0 11 5 11 10 0 6 -2 10 -4 10 -3 0
-8 -4 -11 -10z"/>
<path d="M5355 5900 c3 -5 8 -10 11 -10 2 0 4 5 4 10 0 6 -5 10 -11 10 -5 0
-7 -4 -4 -10z"/>
<path d="M1920 5680 c0 -5 5 -10 10 -10 6 0 10 5 10 10 0 6 -4 10 -10 10 -5 0
-10 -4 -10 -10z"/>
<path d="M2080 5680 c0 -5 5 -10 10 -10 6 0 10 5 10 10 0 6 -4 10 -10 10 -5 0
-10 -4 -10 -10z"/>
<path d="M2043 5650 c0 -24 2 -26 14 -14 12 12 12 16 0 28 -12 12 -14 10 -14
-14z"/>
<path d="M1823 5524 c-15 -16 -16 -24 -4 -24 8 0 24 30 19 35 -2 2 -9 -3 -15
-11z"/>
<path d="M2058 5473 c-10 -2 -18 -9 -18 -14 0 -6 -9 -7 -22 -3 -21 6 -22 6 -8
-12 8 -10 18 -21 22 -24 3 -3 0 -14 -8 -24 -7 -11 -17 -16 -21 -12 -4 4 -1 11
6 16 12 7 11 11 -3 25 -16 16 -18 16 -41 -11 -36 -42 -16 -57 82 -59 74 -3
103 5 103 27 0 6 -7 5 -15 -2 -20 -17 -42 2 -42 34 0 18 4 23 16 19 11 -4 8 2
-8 20 -14 15 -25 26 -25 26 -1 -1 -9 -3 -18 -6z m-61 -83 c0 -17 -4 -26 -8
-19 -4 6 -12 8 -18 5 -15 -10 -14 17 1 32 19 19 25 14 25 -18z"/>
<path d="M2110 5390 c0 -5 5 -10 10 -10 6 0 10 5 10 10 0 6 -4 10 -10 10 -5 0
-10 -4 -10 -10z"/>
<path d="M1920 5000 c0 -5 5 -10 10 -10 6 0 10 5 10 10 0 6 -4 10 -10 10 -5 0
-10 -4 -10 -10z"/>
<path d="M2290 4960 c-8 -5 -11 -12 -7 -16 4 -4 13 -2 19 4 15 15 7 24 -12 12z"/>
<path d="M2307 4938 c-36 -50 -40 -59 -23 -52 9 3 16 11 16 17 0 6 3 8 6 5 3
-4 -1 -17 -10 -30 -14 -22 -14 -24 3 -24 11 0 17 6 14 13 -3 7 0 13 6 13 6 0
11 -5 11 -11 0 -5 5 -7 10 -4 8 5 7 11 -1 21 -10 12 -9 13 7 7 10 -3 22 -11
26 -17 5 -8 8 -7 8 1 0 6 -7 18 -15 26 -13 13 -13 16 0 27 26 22 16 33 -12 15
-16 -10 -22 -12 -15 -4 14 15 16 29 3 29 -6 0 -21 -15 -34 -32z"/>
<path d="M2383 4933 c-15 -5 -17 -23 -4 -23 5 0 11 7 15 15 3 8 4 15 3 14 -1
0 -8 -3 -14 -6z"/>
<path d="M1670 4820 c0 -5 5 -10 10 -10 6 0 10 5 10 10 0 6 -4 10 -10 10 -5 0
-10 -4 -10 -10z"/>
<path d="M1715 4820 c3 -5 8 -10 11 -10 2 0 4 5 4 10 0 6 -5 10 -11 10 -5 0
-7 -4 -4 -10z"/>
<path d="M2280 4720 c-9 -6 -10 -10 -3 -10 6 0 15 5 18 10 8 12 4 12 -15 0z"/>
<path d="M2306 4711 c-7 -9 -17 -23 -21 -31 -6 -12 -5 -13 5 -3 10 9 17 10 27
1 11 -9 17 -6 30 11 12 18 17 20 24 10 6 -11 12 -10 27 7 19 20 19 20 -30 20
-31 0 -53 -5 -62 -15z m24 -11 c0 -5 -4 -10 -10 -10 -5 0 -10 5 -10 10 0 6 5
10 10 10 6 0 10 -4 10 -10z"/>
<path d="M2351 4673 c-7 -8 -10 -17 -6 -21 3 -3 9 -1 13 5 5 8 13 7 27 -3 17
-13 18 -16 5 -24 -8 -5 -11 -12 -7 -16 4 -4 14 1 21 12 8 10 14 19 13 19 -1 0
-13 10 -27 22 -22 19 -27 19 -39 6z"/>
<path d="M2400 4679 c0 -5 5 -7 10 -4 6 3 10 8 10 11 0 2 -4 4 -10 4 -5 0 -10
-5 -10 -11z"/>
<path d="M2605 4679 c-4 -6 -5 -12 -2 -15 2 -3 7 2 10 11 7 17 1 20 -8 4z"/>
<path d="M2297 4653 c-13 -13 -7 -22 11 -16 15 6 15 5 3 -10 -12 -16 -11 -17
18 -14 34 4 59 22 47 34 -4 4 -11 1 -16 -6 -7 -12 -11 -11 -25 2 -18 18 -28
21 -38 10z"/>
<path d="M1850 4530 c0 -5 5 -10 10 -10 6 0 10 5 10 10 0 6 -4 10 -10 10 -5 0
-10 -4 -10 -10z"/>
<path d="M2386 4491 c-4 -5 -25 -9 -48 -8 -29 1 -43 -2 -46 -13 -4 -12 -2 -13
9 -3 15 15 39 -1 39 -26 0 -13 -2 -13 -9 -2 -7 11 -12 11 -31 -2 -14 -10 -18
-17 -10 -22 6 -4 8 -16 4 -28 -6 -20 -5 -20 10 -8 9 8 20 11 23 7 4 -4 1 -12
-7 -17 -13 -9 -13 -10 1 -6 9 3 22 0 28 -6 7 -7 11 -7 11 -1 0 6 9 20 21 32
11 12 17 27 13 34 -5 7 -2 9 9 5 11 -4 14 -2 10 9 -6 17 -30 19 -35 2 -3 -9
-6 -9 -12 0 -4 7 -2 12 3 12 6 0 11 6 11 14 0 8 6 16 13 19 6 2 9 7 6 11 -4 4
-10 3 -13 -3z"/>
<path d="M2580 4438 c-20 -26 -21 -30 -5 -21 15 9 23 7 37 -9 16 -19 18 -19
34 -4 15 16 15 18 -2 31 -11 7 -20 9 -22 4 -7 -19 -23 -8 -17 11 8 27 5 25
-25 -12z m60 -18 c0 -5 -4 -10 -10 -10 -5 0 -10 5 -10 10 0 6 5 10 10 10 6 0
10 -4 10 -10z"/>
<path d="M2209 4423 c-13 -16 -12 -17 4 -4 16 13 21 21 13 21 -2 0 -10 -8 -17
-17z"/>
<path d="M2215 4400 c-3 -5 -1 -10 4 -10 6 0 11 5 11 10 0 6 -2 10 -4 10 -3 0
-8 -4 -11 -10z"/>
<path d="M2536 4395 c-9 -26 -7 -32 5 -12 6 10 9 21 6 23 -2 3 -7 -2 -11 -11z"/>
<path d="M2490 4250 c0 -5 7 -10 15 -10 8 0 15 5 15 10 0 6 -7 10 -15 10 -8 0
-15 -4 -15 -10z"/>
<path d="M2543 4217 c-21 -26 -24 -37 -10 -31 23 8 29 -24 10 -53 -17 -25 -16
-25 4 -19 12 4 24 2 28 -5 6 -8 9 -8 15 1 6 9 13 9 29 1 15 -9 26 -9 39 -1 14
9 13 10 -8 4 -20 -5 -23 -4 -12 7 17 19 15 31 -5 25 -26 -8 -49 9 -36 26 8 10
4 19 -17 35 -21 17 -30 20 -37 10z m47 -31 c0 -11 -19 -15 -25 -6 -3 5 1 10 9
10 9 0 16 -2 16 -4z"/>
<path d="M2590 4220 c0 -5 5 -10 11 -10 5 0 7 5 4 10 -3 6 -8 10 -11 10 -2 0
-4 -4 -4 -10z"/>
<path d="M2630 4185 c7 -9 15 -13 17 -11 7 7 -7 26 -19 26 -6 0 -6 -6 2 -15z"/>
<path d="M2810 4191 c0 -5 7 -11 15 -15 8 -3 15 -1 15 3 0 5 -7 11 -15 15 -8
3 -15 1 -15 -3z"/>
<path d="M2535 4160 c-3 -5 -1 -10 4 -10 6 0 11 5 11 10 0 6 -2 10 -4 10 -3 0
-8 -4 -11 -10z"/>
<path d="M2380 4090 c0 -5 5 -10 10 -10 6 0 10 5 10 10 0 6 -4 10 -10 10 -5 0
-10 -4 -10 -10z"/>
<path d="M2850 3980 c0 -5 5 -10 11 -10 5 0 7 5 4 10 -3 6 -8 10 -11 10 -2 0
-4 -4 -4 -10z"/>
<path d="M2858 3933 c20 -8 14 -25 -7 -18 -11 3 -22 1 -26 -5 -5 -8 -11 -8
-21 1 -11 9 -14 8 -14 -5 0 -9 6 -16 13 -17 59 -4 71 -6 74 -16 6 -16 33 -4
33 14 0 10 -7 13 -22 9 -13 -3 -17 -3 -10 0 25 12 4 47 -26 43 -4 0 -1 -3 6
-6z"/>
<path d="M2682 3888 c-19 -19 -14 -29 8 -16 20 13 27 28 12 28 -4 0 -13 -5
-20 -12z"/>
<path d="M2830 3870 c0 -5 4 -10 9 -10 6 0 13 5 16 10 3 6 -1 10 -9 10 -9 0
-16 -4 -16 -10z"/>
<path d="M3046 3712 c-15 -3 -16 -6 -5 -13 12 -8 12 -10 0 -18 -12 -8 -11 -12
3 -27 15 -15 19 -15 28 -3 7 11 11 11 15 2 2 -7 12 -13 21 -13 15 1 15 2 0 14
-10 7 -18 18 -18 25 0 6 -4 11 -10 11 -5 0 -10 -7 -10 -15 0 -8 -4 -15 -10
-15 -13 0 -13 13 1 27 16 16 8 29 -15 25z"/>
<path d="M3110 3675 c0 -8 5 -15 10 -15 6 0 10 7 10 15 0 8 -4 15 -10 15 -5 0
-10 -7 -10 -15z"/>
<path d="M3301 3454 c10 -13 10 -17 0 -24 -9 -5 -10 -10 -2 -14 6 -4 11 -2 11
3 0 6 5 11 10 11 7 0 7 -6 1 -19 -10 -18 -6 -31 11 -31 4 0 8 9 8 19 0 21 17
37 27 27 3 -3 0 -12 -7 -21 -18 -22 -4 -19 19 4 19 19 19 20 1 36 -17 15 -19
15 -29 -2 -9 -17 -11 -17 -26 5 -9 12 -21 22 -27 22 -6 0 -5 -6 3 -16z"/>
<path d="M3215 3420 c-3 -5 -1 -10 4 -10 6 0 11 5 11 10 0 6 -2 10 -4 10 -3 0
-8 -4 -11 -10z"/>
<path d="M3181 3384 c-7 -8 -11 -17 -9 -20 3 -2 13 5 23 16 10 11 14 20 9 20
-5 -1 -15 -8 -23 -16z"/>
<path d="M3380 3390 c0 -5 5 -10 10 -10 6 0 10 5 10 10 0 6 -4 10 -10 10 -5 0
-10 -4 -10 -10z"/>
<path d="M3280 3270 c0 -5 5 -10 10 -10 6 0 10 5 10 10 0 6 -4 10 -10 10 -5 0
-10 -4 -10 -10z"/>
<path d="M3612 3187 c-12 -13 -22 -27 -22 -33 0 -5 11 4 25 20 14 16 25 31 25
33 0 7 -8 2 -28 -20z"/>
<path d="M3612 3139 c-13 -16 -20 -29 -16 -29 9 0 44 41 44 52 0 12 -3 10 -28
-23z"/>
<path d="M8422 2964 c-7 -8 -8 -14 -3 -14 10 0 25 19 20 25 -2 1 -10 -3 -17
-11z"/>
<path d="M8430 2929 c0 -5 5 -7 10 -4 6 3 10 8 10 11 0 2 -4 4 -10 4 -5 0 -10
-5 -10 -11z"/>
<path d="M4280 2755 c-7 -9 -20 -13 -29 -10 -12 5 -12 2 2 -13 23 -25 22 -29
-13 -62 -17 -16 -26 -31 -21 -34 5 -4 11 -1 13 5 3 8 10 8 26 -2 23 -14 29
-29 12 -29 -5 0 -10 5 -10 11 0 5 -5 7 -10 4 -6 -4 -4 -12 5 -22 14 -14 18
-13 37 8 14 16 22 20 25 12 5 -15 51 -7 68 11 12 13 16 66 6 66 -4 0 -13 -6
-21 -12 -12 -11 -12 -10 -3 2 11 14 13 70 3 70 -2 0 -18 -14 -35 -30 -27 -27
-34 -29 -44 -16 -9 11 -10 20 -1 35 13 25 8 27 -10 6z"/>
<path d="M8371 2728 c-36 -41 -66 -46 -66 -13 -1 31 -14 45 -41 45 -29 0 -32
-15 -5 -29 10 -6 21 -18 25 -27 4 -10 -4 -7 -25 10 -34 29 -59 24 -79 -15 -6
-11 -15 -17 -21 -13 -7 4 -6 10 1 19 8 9 5 14 -12 19 -17 4 -29 -1 -45 -22
-26 -30 -29 -48 -10 -50 6 0 21 -3 33 -7 14 -4 27 0 39 12 17 16 18 17 12 1
-7 -21 3 -24 21 -6 9 9 12 9 12 0 0 -7 6 -12 14 -12 8 0 16 -6 19 -12 3 -10 7
-10 20 0 9 8 20 11 26 8 5 -4 16 0 24 8 11 11 17 12 26 3 8 -8 14 -9 19 -1 8
11 56 13 67 2 4 -4 14 -4 23 -1 11 5 13 3 7 -6 -6 -10 -3 -11 12 -3 23 13 37
30 47 57 6 17 4 16 -20 -5 -22 -20 -26 -21 -21 -7 4 11 1 25 -9 34 -8 9 -13
24 -11 34 5 20 -8 26 -18 9 -4 -7 -11 -7 -18 -2 -8 6 -24 -4 -46 -30z m49 14
c0 -13 -49 -56 -56 -50 -3 3 5 17 18 31 24 26 38 33 38 19z m-186 -33 c-3 -5
-10 -7 -15 -3 -5 3 -7 10 -3 15 3 5 10 7 15 3 5 -3 7 -10 3 -15z m196 -4 c-7
-8 -17 -15 -23 -15 -5 0 -2 9 8 20 21 23 35 19 15 -5z m-290 -4 c0 -5 -7 -14
-15 -21 -16 -14 -18 -10 -9 14 6 17 24 22 24 7z"/>
<path d="M8505 2760 c5 -8 1 -18 -10 -26 -10 -8 -16 -17 -12 -20 9 -9 37 15
37 32 0 7 -5 16 -12 20 -7 5 -8 3 -3 -6z"/>
<path d="M4302 2748 c-17 -17 -15 -28 4 -28 8 0 12 5 9 10 -3 6 -1 10 4 10 6
0 11 5 11 10 0 14 -13 13 -28 -2z"/>
<path d="M8150 2749 c0 -5 5 -7 10 -4 6 3 10 8 10 11 0 2 -4 4 -10 4 -5 0 -10
-5 -10 -11z"/>
<path d="M8550 2750 c0 -5 5 -10 11 -10 5 0 7 5 4 10 -3 6 -8 10 -11 10 -2 0
-4 -4 -4 -10z"/>
<path d="M5102 2730 c-18 -29 -15 -36 8 -15 14 13 20 14 20 5 0 -7 2 -11 5 -8
7 6 -5 38 -14 38 -3 0 -12 -9 -19 -20z"/>
<path d="M5475 2740 c-3 -5 -2 -10 4 -10 5 0 13 5 16 10 3 6 2 10 -4 10 -5 0
-13 -4 -16 -10z"/>
<path d="M8330 2730 c-8 -5 -11 -12 -8 -16 4 -3 14 1 23 10 18 17 9 21 -15 6z"/>
<path d="M8080 2720 c0 -5 5 -10 10 -10 6 0 10 5 10 10 0 6 -4 10 -10 10 -5 0
-10 -4 -10 -10z"/>
<path d="M4067 2702 c-10 -10 -17 -24 -17 -30 0 -7 -7 -12 -15 -12 -8 0 -15
-5 -15 -11 0 -6 7 -9 15 -5 9 3 15 0 15 -10 0 -14 2 -14 16 0 17 18 39 22 29
6 -3 -5 -2 -10 4 -10 16 0 23 20 12 34 -6 7 -7 17 -3 21 4 5 -8 -2 -27 -15
l-33 -23 12 24 c7 13 18 27 24 31 6 4 8 9 5 13 -3 3 -13 -3 -22 -13z"/>
<path d="M8591 2697 c-13 -21 -12 -21 5 -5 10 10 16 20 13 22 -3 3 -11 -5 -18
-17z"/>
<path d="M5480 2694 c0 -8 5 -12 10 -9 6 3 10 10 10 16 0 5 -4 9 -10 9 -5 0
-10 -7 -10 -16z"/>
<path d="M5105 2687 c-21 -24 -26 -37 -13 -32 15 6 42 45 31 45 -5 -1 -13 -6
-18 -13z"/>
<path d="M8615 2680 c-10 -11 -13 -20 -7 -20 6 0 16 9 22 20 6 11 9 20 7 20
-2 0 -12 -9 -22 -20z"/>
<path d="M8740 2685 c-7 -9 -8 -15 -2 -15 5 0 12 7 16 15 3 8 4 15 2 15 -2 0
-9 -7 -16 -15z"/>
<path d="M8655 2679 c-4 -6 -5 -12 -2 -15 2 -3 7 2 10 11 7 17 1 20 -8 4z"/>
<path d="M8690 2680 c0 -5 5 -10 11 -10 5 0 7 5 4 10 -3 6 -8 10 -11 10 -2 0
-4 -4 -4 -10z"/>
<path d="M4560 2665 c-7 -8 -8 -15 -2 -15 5 0 15 7 22 15 7 8 8 15 2 15 -5 0
-15 -7 -22 -15z"/>
<path d="M8515 2669 c-12 -18 3 -22 20 -5 14 14 14 16 1 16 -8 0 -18 -5 -21
-11z"/>
<path d="M4585 2649 c-11 -17 1 -21 15 -4 8 9 8 15 2 15 -6 0 -14 -5 -17 -11z"/>
<path d="M5110 2645 c-11 -13 -10 -14 4 -9 9 3 16 10 16 15 0 13 -6 11 -20 -6z"/>
<path d="M4230 2565 c-7 -8 -9 -15 -6 -15 4 0 14 7 22 15 9 8 11 15 6 15 -5 0
-15 -7 -22 -15z"/>
<path d="M4090 2550 c0 -5 5 -10 10 -10 6 0 10 5 10 10 0 6 -4 10 -10 10 -5 0
-10 -4 -10 -10z"/>
<path d="M5667 2509 c-12 -7 -15 -17 -11 -35 3 -13 2 -30 -4 -37 -8 -9 -6 -22
5 -45 14 -30 17 -31 33 -17 9 8 25 15 36 15 18 1 18 2 -3 19 -12 10 -19 21
-16 25 3 3 12 1 20 -5 9 -9 13 -8 13 0 0 6 -4 11 -10 11 -14 0 -12 27 3 33 10
4 10 6 0 6 -7 1 -13 7 -13 15 0 8 -7 17 -16 20 -19 7 -15 8 -37 -5z m53 -33
c0 -3 -4 -8 -10 -11 -5 -3 -10 -1 -10 4 0 6 5 11 10 11 6 0 10 -2 10 -4z"/>
<path d="M6021 2496 c-20 -22 -21 -25 -5 -28 15 -3 14 -7 -10 -34 -26 -32 -37
-59 -14 -36 16 16 33 15 19 -1 -8 -11 -5 -14 19 -14 16 0 31 6 34 14 6 15 -3
43 -14 43 -5 0 -6 18 -4 40 2 22 2 40 1 40 -2 0 -14 -11 -26 -24z m29 -81 c7
-8 9 -15 6 -15 -4 0 -14 7 -22 15 -9 8 -11 15 -6 15 5 0 15 -7 22 -15z"/>
<path d="M4801 2485 c-13 -12 -20 -28 -17 -34 5 -7 1 -9 -8 -5 -18 7 -22 -11
-6 -21 8 -5 8 -11 1 -19 -8 -10 -3 -13 20 -13 17 0 35 -6 41 -14 6 -10 7 -7 2
11 -6 23 -6 23 10 7 22 -22 38 -21 58 2 15 18 15 59 -1 62 -27 6 -81 4 -81 -2
0 -5 5 -9 12 -9 6 0 8 -3 5 -6 -4 -4 -13 -1 -21 6 -14 11 -14 14 -1 27 8 8 15
19 15 24 0 12 -1 11 -29 -16z m99 -70 c-7 -8 -17 -15 -22 -15 -11 0 14 29 26
30 5 0 3 -7 -4 -15z"/>
<path d="M5100 2499 c0 -5 5 -7 10 -4 6 3 10 8 10 11 0 2 -4 4 -10 4 -5 0 -10
-5 -10 -11z"/>
<path d="M5053 2493 c-15 -5 -17 -23 -4 -23 5 0 11 7 15 15 3 8 4 15 3 14 -1
0 -8 -3 -14 -6z"/>
<path d="M4757 2476 c-4 -10 -1 -13 9 -9 7 3 14 9 14 14 0 14 -17 10 -23 -5z"/>
<path d="M5120 2480 c0 -5 5 -10 10 -10 6 0 10 5 10 10 0 6 -4 10 -10 10 -5 0
-10 -4 -10 -10z"/>
<path d="M5425 2460 c-3 -5 -1 -10 4 -10 6 0 11 5 11 10 0 6 -2 10 -4 10 -3 0
-8 -4 -11 -10z"/>
<path d="M5036 2431 c3 -52 4 -52 24 -46 11 3 33 7 49 7 24 1 29 5 29 27 0 25
-13 41 -33 41 -5 0 -3 -4 5 -10 23 -15 4 -23 -22 -9 -39 21 -54 18 -52 -10z"/>
<path d="M5352 2426 c-17 -17 -32 -35 -32 -40 0 -5 10 0 23 12 25 24 45 19 24
-6 -11 -13 -9 -14 11 -1 25 16 28 25 10 32 -7 2 -10 8 -6 12 10 10 36 -17 30
-33 -2 -6 0 -12 5 -12 12 1 46 50 34 50 -5 0 -12 -6 -14 -12 -4 -9 -8 -9 -14
-3 -27 33 -38 33 -71 1z"/>
<path d="M4733 2443 c-15 -5 -17 -23 -4 -23 5 0 11 7 15 15 3 8 4 15 3 14 -1
0 -8 -3 -14 -6z"/>
<path d="M5289 2433 c-13 -16 -12 -17 4 -4 16 13 21 21 13 21 -2 0 -10 -8 -17
-17z"/>
<path d="M5000 2429 c0 -5 5 -7 10 -4 6 3 10 8 10 11 0 2 -4 4 -10 4 -5 0 -10
-5 -10 -11z"/>
<path d="M4740 2415 c-8 -9 -8 -15 -2 -15 12 0 26 19 19 26 -2 2 -10 -2 -17
-11z"/>
<path d="M5290 2398 c-12 -22 -12 -22 6 -6 10 10 15 20 12 24 -4 3 -12 -5 -18
-18z"/>
<path d="M5010 2400 c0 -5 5 -10 10 -10 6 0 10 5 10 10 0 6 -4 10 -10 10 -5 0
-10 -4 -10 -10z"/>
<path d="M8644 2363 c-14 -23 34 -67 54 -50 10 8 16 7 22 -3 5 -8 12 -11 17
-7 12 12 -20 27 -42 20 -18 -5 -18 -4 -6 11 18 21 6 33 -15 15 -15 -12 -16
-11 -10 9 9 26 -4 29 -20 5z"/>
<path d="M5082 2316 c7 -8 15 -12 17 -11 5 6 -10 25 -20 25 -5 0 -4 -6 3 -14z"/>
<path d="M4830 2290 c0 -5 5 -10 10 -10 6 0 10 5 10 10 0 6 -4 10 -10 10 -5 0
-10 -4 -10 -10z"/>
<path d="M5770 2260 c0 -5 5 -10 10 -10 6 0 10 5 10 10 0 6 -4 10 -10 10 -5 0
-10 -4 -10 -10z"/>
<path d="M7860 2201 c0 -5 6 -11 13 -14 9 -3 8 -8 -3 -22 -14 -17 -14 -18 8
-6 26 14 27 18 8 37 -17 16 -26 18 -26 5z"/>
<path d="M6547 2183 c-4 -3 -7 -11 -7 -17 0 -6 5 -4 11 4 8 11 12 12 16 3 2
-7 9 -13 15 -13 6 0 6 6 -2 15 -14 16 -23 19 -33 8z"/>
<path d="M7827 2166 c-4 -10 -1 -13 9 -9 7 3 14 9 14 14 0 14 -17 10 -23 -5z"/>
<path d="M5485 2110 c3 -5 8 -10 11 -10 2 0 4 5 4 10 0 6 -5 10 -11 10 -5 0
-7 -4 -4 -10z"/>
<path d="M5691 2073 c-12 -13 -11 -14 8 -8 13 4 21 2 21 -5 0 -6 5 -8 10 -5 6
4 5 12 -4 21 -18 17 -18 17 -35 -3z"/>
<path d="M5757 2074 c6 -16 23 -19 23 -3 0 6 9 8 23 3 12 -3 18 -3 14 2 -4 4
-21 9 -37 10 -21 1 -27 -2 -23 -12z"/>
<path d="M5590 2060 c0 -5 5 -10 10 -10 6 0 10 5 10 10 0 6 -4 10 -10 10 -5 0
-10 -4 -10 -10z"/>
<path d="M5640 2059 c0 -5 5 -7 10 -4 6 3 10 8 10 11 0 2 -4 4 -10 4 -5 0 -10
-5 -10 -11z"/>
<path d="M6381 2031 c-12 -8 -12 -11 1 -25 14 -13 18 -12 39 10 17 19 19 23 6
18 -9 -3 -17 -10 -17 -15 0 -5 -5 -9 -11 -9 -6 0 -9 7 -5 15 6 17 6 18 -13 6z"/>
<path d="M6573 2024 c-15 -16 -16 -24 -4 -24 8 0 24 30 19 35 -2 2 -9 -3 -15
-11z"/>
<path d="M6850 2015 c0 -8 5 -15 10 -15 6 0 10 7 10 15 0 8 -4 15 -10 15 -5 0
-10 -7 -10 -15z"/>
<path d="M7055 2019 c-11 -17 1 -21 15 -4 8 9 8 15 2 15 -6 0 -14 -5 -17 -11z"/>
<path d="M6485 2010 c-3 -5 -1 -10 4 -10 6 0 11 5 11 10 0 6 -2 10 -4 10 -3 0
-8 -4 -11 -10z"/>
<path d="M7715 1990 c4 -6 11 -8 16 -5 14 9 11 15 -7 15 -8 0 -12 -5 -9 -10z"/>
<path d="M6770 1980 c0 -5 5 -10 10 -10 6 0 10 5 10 10 0 6 -4 10 -10 10 -5 0
-10 -4 -10 -10z"/>
<path d="M7530 1910 c0 -5 4 -10 10 -10 5 0 7 -7 4 -15 -4 -8 -3 -15 1 -15 3
0 13 7 21 15 14 13 14 15 0 15 -9 0 -16 5 -16 10 0 6 -4 10 -10 10 -5 0 -10
-4 -10 -10z"/>
<path d="M7455 1879 c-11 -17 1 -21 15 -4 8 9 8 15 2 15 -6 0 -14 -5 -17 -11z"/>
<path d="M7585 1880 c-3 -5 -1 -10 4 -10 6 0 11 5 11 10 0 6 -2 10 -4 10 -3 0
-8 -4 -11 -10z"/>
<path d="M7540 1830 c0 -5 5 -10 10 -10 6 0 10 5 10 10 0 6 -4 10 -10 10 -5 0
-10 -4 -10 -10z"/>
<path d="M8152 455 c0 -16 2 -22 5 -12 2 9 2 23 0 30 -3 6 -5 -1 -5 -18z"/>
<path d="M8470 469 c0 -5 5 -7 10 -4 6 3 10 8 10 11 0 2 -4 4 -10 4 -5 0 -10
-5 -10 -11z"/>
<path d="M8473 350 c0 -47 2 -66 4 -42 2 23 2 61 0 85 -2 23 -4 4 -4 -43z"/>
<path d="M7990 300 c0 -5 5 -10 11 -10 5 0 7 5 4 10 -3 6 -8 10 -11 10 -2 0
-4 -4 -4 -10z"/>
</g>
</svg>
